<?xml version="1.0" encoding="utf-8"?>
<!-- Generator: Adobe Illustrator 16.0.0, SVG Export Plug-In . SVG Version: 6.00 Build 0)  -->
<!DOCTYPE svg PUBLIC "-//W3C//DTD SVG 1.1//EN" "http://www.w3.org/Graphics/SVG/1.1/DTD/svg11.dtd">
<svg version="1.1" id="Capa_1" xmlns="http://www.w3.org/2000/svg" xmlns:xlink="http://www.w3.org/1999/xlink" x="0px" y="0px"
	 width="782.36px" height="560.69px" viewBox="0 0 782.36 560.69" enable-background="new 0 0 782.36 560.69" xml:space="preserve">
<g>
	<g>
		<path fill="#FFFFFF" d="M182.551,404.219c-43.147,0-78.236,35.089-78.236,78.236c0,43.148,35.088,78.236,78.236,78.236
			s78.236-35.088,78.236-78.236C260.787,439.307,225.697,404.219,182.551,404.219z M182.551,534.613
			c-28.766,0-52.157-23.395-52.157-52.158c0-28.766,23.393-52.157,52.157-52.157s52.157,23.394,52.157,52.157
			C234.708,511.218,211.315,534.613,182.551,534.613z"/>
	</g>
</g>
<g>
	<g>
		<path fill="#FFFFFF" d="M625.889,404.219c-43.148,0-78.236,35.089-78.236,78.236c0,43.148,35.088,78.236,78.236,78.236
			c43.146,0,78.234-35.088,78.234-78.236C704.124,439.307,669.036,404.219,625.889,404.219z M625.889,534.613
			c-28.766,0-52.158-23.395-52.158-52.158c0-28.766,23.393-52.157,52.158-52.157s52.156,23.394,52.156,52.157
			C678.045,511.218,654.653,534.613,625.889,534.613z"/>
	</g>
</g>
<g>
	<g>
		<path fill="#FFFFFF" d="M780.288,331.969L662.932,149.418c-2.398-3.729-6.531-5.985-10.967-5.985H508.534
			c-7.211,0-13.039,5.842-13.039,13.039v325.981c0,7.211,5.828,13.039,13.039,13.039h52.158v-26.079h-39.119V169.511h123.273
			l111.436,173.344v126.561h-65.197v26.078h78.236c7.211,0,13.037-5.828,13.037-13.039V339.021
			C782.36,336.531,781.643,334.066,780.288,331.969z"/>
	</g>
</g>
<g>
	<g>
		<path fill="#FFFFFF" d="M573.731,312.943v-91.274h104.316V195.59H560.692c-7.211,0-13.037,5.842-13.037,13.039v117.353
			c0,7.211,5.826,13.039,13.037,13.039h195.592v-26.079L573.731,312.943L573.731,312.943z"/>
	</g>
</g>
<g>
	<g>
		<path fill="#FFFFFF" d="M508.534,52.158H13.039C5.842,52.158,0,58,0,65.198v417.257c0,7.211,5.842,13.039,13.039,13.039h104.315
			v-26.079H26.079V78.236h469.416v391.179H247.747v26.079h260.787c7.211,0,13.039-5.828,13.039-13.039V65.198
			C521.573,58,515.745,52.158,508.534,52.158z"/>
	</g>
</g>
<g>
	<g>
		<rect x="13.039" y="417.258" fill="#FFFFFF" width="78.236" height="26.079"/>
	</g>
</g>
<g>
	<g>
		<rect x="273.826" y="417.258" fill="#FFFFFF" width="221.668" height="26.079"/>
	</g>
</g>
<g>
	<g>
		<rect x="717.163" y="417.258" fill="#FFFFFF" width="52.158" height="26.079"/>
	</g>
</g>
<g>
	<g>
		<rect x="52.157" y="104.314" fill="#FFFFFF" width="456.377" height="26.079"/>
	</g>
</g>
<g>
	<g>
		<rect x="169.511" y="469.415" fill="#FFFFFF" width="26.079" height="26.079"/>
	</g>
</g>
<g>
	<g>
		<rect x="612.85" y="469.415" fill="#FFFFFF" width="26.078" height="26.079"/>
	</g>
</g>
<g>
	<g>
		<rect x="52.157" y="0" fill="#FFFFFF" width="182.551" height="26.079"/>
	</g>
</g>
<g>
	<g>
		<rect y="0" fill="#FFFFFF" width="26.079" height="26.079"/>
	</g>
</g>
</svg>
