<?xml version="1.0" encoding="utf-8"?>
<!-- Generator: Adobe Illustrator 16.0.0, SVG Export Plug-In . SVG Version: 6.00 Build 0)  -->
<!DOCTYPE svg PUBLIC "-//W3C//DTD SVG 1.1//EN" "http://www.w3.org/Graphics/SVG/1.1/DTD/svg11.dtd">
<svg version="1.1" id="Capa_1" xmlns="http://www.w3.org/2000/svg" xmlns:xlink="http://www.w3.org/1999/xlink" x="0px" y="0px"
	 width="782.36px" height="641.778px" viewBox="0 0 782.36 641.778" enable-background="new 0 0 782.36 641.778"
	 xml:space="preserve">
<path fill="#FFFFFF" d="M391.18,519.535c-8.435,0-15.28,6.846-15.28,15.28s6.846,15.28,15.28,15.28
	c8.436,0,15.282-6.846,15.282-15.28S399.616,519.535,391.18,519.535z"/>
<path fill="#FFFFFF" d="M716.788,23.487C679.186,8.342,630.297,0,579.129,0c-51.166,0-100.055,8.342-137.656,23.486
	c-22.221,8.949-39.188,19.887-50.293,32.16c-11.105-12.273-28.071-23.209-50.292-32.159C303.285,8.342,254.397,0,203.23,0
	C152.063,0,103.175,8.342,65.573,23.487C23.288,40.518,0,64.738,0,91.683v366.73c0,26.945,23.288,51.165,65.573,68.196
	c34.972,14.086,79.71,22.276,126.961,23.355v0.131c0,52.269,85.399,91.683,198.646,91.683c113.247,0,198.647-39.414,198.647-91.683
	v-0.131c47.25-1.079,91.988-9.27,126.961-23.355c42.285-17.031,65.572-41.251,65.572-68.196V91.683
	C782.36,64.738,759.073,40.518,716.788,23.487z M751.799,366.731c0,13.045-17.791,28.313-46.43,39.848
	c-30.996,12.484-72.611,20.038-115.543,21.123v-60.971c0-0.045-0.004-0.089-0.004-0.132c47.252-1.077,91.99-9.268,126.967-23.354
	c13.727-5.528,25.436-11.818,35.012-18.71L751.799,366.731L751.799,366.731z M375.899,183.365c0,13.045-17.791,28.313-46.43,39.849
	c-33.566,13.521-79.579,21.273-126.239,21.273c-46.661,0-92.673-7.753-126.24-21.273c-28.639-11.535-46.43-26.804-46.43-39.849
	V141.17c9.576,6.892,21.286,13.181,35.012,18.71c37.602,15.145,86.49,23.485,137.657,23.485c51.167,0,100.055-8.341,137.657-23.485
	c13.727-5.529,25.436-11.818,35.012-18.71V183.365z M65.573,251.562c37.602,15.145,86.49,23.485,137.657,23.485
	c51.167,0,100.055-8.341,137.657-23.485c13.727-5.528,25.436-11.818,35.012-18.71v42.466c-39.53,1.339-77.441,7.827-108.104,18.626
	c-30.755,10.832-52.886,25.276-64.921,42.222c-46.538-0.04-92.402-7.784-125.883-21.27c-28.639-11.535-46.43-26.804-46.43-39.849
	v-42.195C40.137,239.744,51.847,246.034,65.573,251.562z M30.561,324.535c9.576,6.892,21.286,13.182,35.012,18.71
	c34.974,14.084,79.713,22.275,126.965,23.354c0,0.044-0.003,0.089-0.003,0.132v60.971c-42.934-1.085-84.547-8.639-115.543-21.123
	c-28.64-11.535-46.431-26.803-46.431-39.848V324.535z M224.711,359.223c11.325-26.354,76.687-53.614,166.468-53.614
	c89.782,0,155.145,27.26,166.458,53.583c1.096,2.568,1.629,5.033,1.629,7.538c0,13.435-16.563,28.357-44.307,39.917
	c-32.816,13.675-76.775,21.204-123.78,21.204c-47.004,0-90.963-7.529-123.779-21.204c-27.744-11.56-44.306-26.482-44.306-39.917
	C223.095,364.226,223.628,361.761,224.711,359.223z M751.799,275.048c0,13.045-17.791,28.313-46.43,39.849
	c-33.479,13.485-79.342,21.229-125.879,21.27c-12.025-16.936-34.16-31.387-64.926-42.222
	c-30.662-10.801-68.574-17.287-108.104-18.626v-42.466c9.576,6.892,21.285,13.182,35.012,18.71
	c37.602,15.145,86.49,23.485,137.656,23.485c51.168,0,100.057-8.341,137.658-23.485c13.727-5.528,25.436-11.818,35.012-18.71
	V275.048z M751.799,183.365c0,13.045-17.791,28.313-46.43,39.849c-33.566,13.521-79.578,21.273-126.24,21.273
	c-46.66,0-92.672-7.753-126.238-21.273c-28.639-11.535-46.43-26.804-46.43-39.849V141.17c9.576,6.892,21.285,13.181,35.012,18.71
	c37.602,15.145,86.49,23.485,137.656,23.485c51.168,0,100.057-8.341,137.658-23.485c13.727-5.529,25.436-11.818,35.012-18.71
	V183.365z M452.891,51.834c33.566-13.52,79.578-21.273,126.238-21.273c46.662,0,92.674,7.754,126.24,21.273
	c28.639,11.535,46.43,26.804,46.43,39.849s-17.791,28.313-46.43,39.848c-33.566,13.521-79.578,21.273-126.24,21.273
	c-46.66,0-92.672-7.753-126.238-21.273c-28.639-11.535-46.43-26.803-46.43-39.848S424.252,63.369,452.891,51.834z M76.991,51.834
	c33.566-13.52,79.579-21.273,126.24-21.273c46.66,0,92.673,7.754,126.239,21.273c28.639,11.535,46.43,26.804,46.43,39.849
	s-17.791,28.313-46.43,39.848c-33.566,13.521-79.579,21.273-126.239,21.273c-46.661,0-92.673-7.753-126.24-21.273
	c-28.639-11.535-46.43-26.803-46.43-39.848S48.352,63.369,76.991,51.834z M76.991,498.262c-28.639-11.535-46.43-26.804-46.43-39.849
	v-42.195c9.576,6.892,21.286,13.181,35.012,18.709c34.972,14.086,79.71,22.276,126.961,23.354v61.104
	C149.601,518.299,107.987,510.747,76.991,498.262z M514.959,590.013c-32.816,13.675-76.775,21.205-123.78,21.205
	c-47.004,0-90.963-7.53-123.779-21.205c-27.744-11.56-44.306-26.482-44.306-39.917v-41.305c3.461,2.505,7.286,4.994,11.528,7.448
	c23.729,13.73,56.015,23.888,93.37,29.37c0.754,0.11,1.499,0.164,2.238,0.164c7.457,0,13.983-5.467,15.1-13.063
	c1.225-8.35-4.551-16.112-12.898-17.338c-71.016-10.426-109.337-37.127-109.337-56.959v-41.44
	c34.586,25.307,95.636,41.44,168.085,41.44c72.45,0,133.5-16.134,168.086-41.44v41.44c0,19.832-38.32,46.533-109.338,56.959
	c-8.348,1.226-14.125,8.988-12.896,17.338c1.115,7.599,7.641,13.063,15.098,13.063c0.738,0,1.486-0.054,2.238-0.164
	c37.354-5.482,69.639-15.638,93.371-29.37c4.24-2.454,8.066-4.943,11.527-7.448v41.305
	C559.266,563.531,542.704,578.453,514.959,590.013z M705.37,498.262c-30.996,12.483-72.611,20.037-115.543,21.122v-61.104
	c47.25-1.079,91.988-9.27,126.961-23.354c13.727-5.529,25.436-11.818,35.012-18.71v42.197
	C751.799,471.458,734.008,486.727,705.37,498.262z"/>
</svg>
