<?xml version="1.0" encoding="utf-8"?>
<!-- Generator: Adobe Illustrator 16.0.0, SVG Export Plug-In . SVG Version: 6.00 Build 0)  -->
<!DOCTYPE svg PUBLIC "-//W3C//DTD SVG 1.1//EN" "http://www.w3.org/Graphics/SVG/1.1/DTD/svg11.dtd">
<svg version="1.1" id="Layer_1" xmlns="http://www.w3.org/2000/svg" xmlns:xlink="http://www.w3.org/1999/xlink" x="0px" y="0px"
	 width="512px" height="512px" viewBox="0 0 512 512" enable-background="new 0 0 512 512" xml:space="preserve">
<path fill="#FFFFFF" d="M352,426.666H28.288C12.693,426.666,0,413.973,0,398.378V138.666C0,132.779,4.779,128,10.667,128H416
	c5.888,0,10.667,4.778,10.667,10.666V224c0,5.888-4.779,10.666-10.667,10.666s-10.667-4.778-10.667-10.666v-74.667h-384v249.045
	c0,3.841,3.115,6.955,6.955,6.955H352c5.888,0,10.667,4.778,10.667,10.667C362.667,421.888,357.888,426.666,352,426.666z"/>
<path fill="#FFFFFF" d="M416,149.333c-3.755,0-7.402-1.984-9.344-5.525L342.229,26.859c-1.856-3.413-5.44-5.525-9.344-5.525H93.781
	c-3.904,0-7.488,2.112-9.344,5.525L20.011,143.808c-2.837,5.185-9.365,6.997-14.485,4.203c-5.163-2.838-7.04-9.345-4.203-14.485
	L65.75,16.576C71.36,6.336,82.112,0,93.781,0h239.125c11.67,0,22.422,6.336,28.032,16.555l64.405,116.949
	c2.859,5.162,0.981,11.647-4.181,14.485C419.52,148.906,417.749,149.333,416,149.333z"/>
<path fill="#FFFFFF" d="M213.333,149.333c-5.888,0-10.667-4.778-10.667-10.667v-128C202.667,4.779,207.445,0,213.333,0
	C219.221,0,224,4.779,224,10.666v128C224,144.555,219.221,149.333,213.333,149.333z"/>
<path fill="#FFFFFF" d="M501.333,512c-5.888,0-10.666-4.779-10.666-10.667v-42.667c0-64.704-52.651-117.333-117.334-117.333h-42.666
	c-5.889,0-10.667-4.778-10.667-10.667c0-5.888,4.778-10.666,10.667-10.666h42.666C449.792,320,512,382.208,512,458.666v42.667
	C512,507.221,507.222,512,501.333,512z"/>
<path fill="#FFFFFF" d="M405.333,405.333c-2.453,0-4.928-0.854-6.933-2.581l-74.667-64c-2.39-2.006-3.733-4.971-3.733-8.086
	c0-3.114,1.344-6.08,3.733-8.085l74.667-64c4.458-3.818,11.157-3.328,15.04,1.152c3.84,4.458,3.307,11.199-1.174,15.04
	l-65.194,55.893l65.216,55.915c4.479,3.84,4.992,10.56,1.173,15.04C411.307,404.074,408.342,405.333,405.333,405.333
	L405.333,405.333z"/>
</svg>
