<?xml version="1.0" encoding="utf-8"?>
<!-- Generator: Adobe Illustrator 16.0.0, SVG Export Plug-In . SVG Version: 6.00 Build 0)  -->
<!DOCTYPE svg PUBLIC "-//W3C//DTD SVG 1.1//EN" "http://www.w3.org/Graphics/SVG/1.1/DTD/svg11.dtd">
<svg version="1.1" id="Capa_1" xmlns="http://www.w3.org/2000/svg" xmlns:xlink="http://www.w3.org/1999/xlink" x="0px" y="0px"
	 width="782.36px" height="782.306px" viewBox="0 0 782.36 782.306" enable-background="new 0 0 782.36 782.306"
	 xml:space="preserve">
<g transform="translate(-1 -1)">
	<g>
		<g>
			<path fill="#FFFFFF" d="M762.831,604.522L604.479,498.918c-20.096-13.293-47.033-8.918-61.889,10.053l-46.127,59.307
				c-5.928,7.816-16.703,10.084-25.279,5.32l-8.775-4.838c-29.086-15.854-65.277-35.592-138.195-108.537
				c-72.918-72.944-92.696-109.162-108.55-138.195l-4.811-8.774c-4.83-8.574-2.605-19.396,5.214-25.371l59.267-46.112
				c18.963-14.858,23.344-41.788,10.065-61.89L179.796,21.528c-13.608-20.47-40.911-26.614-61.978-13.95L51.602,47.354
				c-20.806,12.232-36.07,32.042-42.593,55.278c-23.845,86.881-5.907,236.824,214.974,457.731
				c175.706,175.691,306.51,222.939,396.417,222.939c20.691,0.088,41.301-2.604,61.275-8.004
				c23.242-6.516,43.055-21.781,55.279-42.594l39.816-66.178C789.452,645.457,783.309,618.137,762.831,604.522z M754.305,653.151
				l-39.727,66.217c-8.777,15.021-23.027,26.066-39.764,30.82c-80.207,22.021-220.332,3.783-432.386-208.271
				C30.375,329.862,12.138,189.749,34.158,109.531c4.761-16.757,15.819-31.025,30.859-39.816l66.217-39.726
				c9.141-5.5,20.991-2.834,26.896,6.049l57.365,86.125l48.148,72.214c5.766,8.72,3.872,20.405-4.354,26.857l-59.281,46.113
				c-18.041,13.794-23.192,38.755-12.085,58.563l4.707,8.553c16.663,30.56,37.378,68.577,113.009,144.194
				c75.63,75.618,113.635,96.334,144.18,112.995l8.564,4.719c19.809,11.107,44.77,5.957,58.564-12.084l46.113-59.281
				c6.453-8.221,18.135-10.113,26.857-4.354l158.338,105.602C757.147,632.155,759.813,644.012,754.305,653.151z"/>
			<path fill="#FFFFFF" d="M444.315,131.433C566.663,131.57,665.813,230.72,665.95,353.07c0,7.2,5.838,13.037,13.037,13.037
				c7.201,0,13.037-5.837,13.037-13.037c-0.15-136.744-110.965-247.561-247.709-247.71c-7.201,0-13.037,5.836-13.037,13.037
				C431.278,125.597,437.114,131.433,444.315,131.433z"/>
			<path fill="#FFFFFF" d="M444.315,209.658c79.164,0.094,143.318,64.246,143.41,143.412c0,7.2,5.838,13.037,13.037,13.037
				c7.201,0,13.037-5.837,13.037-13.037c-0.107-93.561-75.926-169.379-169.484-169.485c-7.201,0-13.037,5.836-13.037,13.036
				C431.278,203.822,437.114,209.658,444.315,209.658z"/>
			<path fill="#FFFFFF" d="M444.315,287.883c35.982,0.043,65.143,29.203,65.188,65.188c0,7.2,5.838,13.037,13.035,13.037
				c7.199,0,13.037-5.837,13.037-13.037c-0.057-50.378-40.883-91.205-91.26-91.262c-7.201,0-13.037,5.837-13.037,13.037
				C431.278,282.047,437.114,287.883,444.315,287.883z"/>
		</g>
	</g>
</g>
</svg>
