<?xml version="1.0" encoding="utf-8"?>
<!-- Generator: Adobe Illustrator 19.0.0, SVG Export Plug-In . SVG Version: 6.00 Build 0)  -->
<svg version="1.1" xmlns="http://www.w3.org/2000/svg" xmlns:xlink="http://www.w3.org/1999/xlink" x="0px" y="0px" width="200px"
	 height="55px" viewBox="0 0 200 55" enable-background="new 0 0 200 55" xml:space="preserve">
<g id="Layer_2_copy_2" display="none">
	<path display="inline" fill="#2FA7DF" d="M-1103.346-30.189h50.958c0,0-11.076,12.922-37.903,41.272
		c-11.16,11.794-28.638,11.792-28.638,11.792h-53.064c0,0,15.189-14.204,39.798-40.324
		C-1120.191-30.189-1103.346-30.189-1103.346-30.189z"/>
</g>
<g id="Layer_2_copy" display="none">
	<path display="inline" opacity="0.8" fill="#0976A8" d="M-1118.268-18.654h39.881c0,0-8.669,10.113-29.663,32.3
		c-8.734,9.23-22.412,9.229-22.412,9.229h-41.529c0,0,11.887-11.116,31.146-31.558
		C-1131.452-18.654-1118.268-18.654-1118.268-18.654z"/>
</g>
<g id="Layer_2" display="none">
	<path display="inline" fill="#004564" d="M-1131.242-8.625h30.25c0,0-6.575,7.671-22.5,24.5c-6.625,7.001-17,7-17,7h-31.5
		c0,0,9.017-8.432,23.625-23.937C-1141.242-8.625-1131.242-8.625-1131.242-8.625z"/>
</g>
<g id="Layer_7" display="none">
	<g display="inline">
		<rect x="-1045.387" y="-16.86" fill="none" width="322.667" height="34.407"/>
		<text transform="matrix(1 0 0 1 -1045.3872 13.4065)"><tspan x="0" y="0" fill="#414042" font-family="'TwCenMT-Condensed'" font-size="47px" letter-spacing="-2">SOLID</tspan><tspan x="68.174" y="0" fill="#6D6E71" font-family="'TwCenMT-Condensed'" font-size="47px" letter-spacing="-2">FACH</tspan></text>
	</g>
</g>
<g id="Layer_5" display="none">
	
		<image display="inline" overflow="visible" width="1300" height="791" xlink:href="4E0AFEEE.jpg"  transform="matrix(1 0 0 1 -1702.3875 -377.9536)">
	</image>
</g>
<g id="Layer_6">
	<polyline fill="#BE1E2D" points="-582.261,-216.96 -582.261,-91.465 -457.761,-7.465 -457.761,-52.465 -547.761,-112.965 
		-547.761,-192.465 	"/>
</g>
<g id="Layer_8">
	<polyline fill="#BE1E2D" points="-451.261,-51.965 -389.761,-91.965 -579.261,-223.465 -452.761,-309.965 -328.261,-222.965 
		-358.261,-203.465 -450.761,-264.965 -516.761,-221.465 -326.261,-88.465 -450.965,-7.356 	"/>
</g>
<g id="Layer_9">
	<polyline fill="#BE1E2D" points="-504.428,-220.465 -362.428,-122.465 -362.428,-197.798 -450.761,-255.798 	"/>
</g>
<g id="Layer_10">
	<polyline fill="#BE1E2D" points="-354.428,-117.465 -354.428,-197.465 -324.428,-215.96 -324.428,-95.465 	"/>
</g>
<g id="Layer_11">
	<rect x="-592.761" y="28.644" fill="none" width="283" height="199"/>
	<text transform="matrix(1 0 0 1 -538.1169 90.4685)"><tspan x="0" y="0" fill="#414042" font-family="'TwCenMT-Condensed'" font-size="96px" letter-spacing="-3">SOLID</tspan><tspan x="151.727" y="0" fill="#414042" font-family="'TwCenMT-Condensed'" font-size="96px" letter-spacing="-3">-</tspan><tspan x="18.673" y="115.199" fill="#BE1E2D" font-family="'TwCenMT-Condensed'" font-size="96px" letter-spacing="-3">FACH</tspan></text>
	<polyline fill="#BE1E2D" points="5.177,17.272 5.177,34.932 22.697,46.753 22.697,40.42 10.032,31.907 10.032,20.719 	"/>
	<polyline fill="#BE1E2D" points="23.612,40.491 32.266,34.862 5.599,16.356 23.401,4.183 40.921,16.427 36.699,19.171 
		23.682,10.516 14.394,16.638 41.203,35.354 23.654,46.769 	"/>
	<polyline fill="#BE1E2D" points="16.13,16.778 36.113,30.57 36.113,19.968 23.682,11.806 	"/>
	<polyline fill="#BE1E2D" points="37.239,31.273 37.239,20.015 41.461,17.412 41.461,34.369 	"/>
	<g>
		<path fill="#FFFFFF" d="M70.467,15.289c-1.219-0.653-2.315-0.98-3.287-0.98c-0.972,0-1.803,0.348-2.492,1.044
			c-0.689,0.697-1.034,1.538-1.034,2.524c0,0.697,0.205,1.44,0.616,2.231c0.411,0.79,1.336,2.055,2.775,3.794
			c1.44,1.739,2.541,3.247,3.302,4.525c0.762,1.278,1.143,2.745,1.143,4.4c0,2.062-0.62,3.736-1.861,5.021
			c-1.241,1.285-2.862,1.928-4.865,1.928c-1.103,0-2.452-0.326-4.049-0.98v-3.33c0.044,0.015,0.087,0.036,0.131,0.065
			c0.218,0.16,0.675,0.403,1.371,0.729c0.697,0.326,1.379,0.49,2.046,0.49c1.088,0,1.984-0.363,2.688-1.088
			c0.704-0.726,1.056-1.655,1.056-2.787c0-0.784-0.179-1.509-0.538-2.177c-0.358-0.668-1.008-1.576-1.95-2.724l-2.499-3.075
			c-0.971-1.192-1.688-2.282-2.153-3.27c-0.465-0.988-0.697-2.164-0.697-3.529c0-2.018,0.588-3.66,1.763-4.923
			s2.699-1.896,4.571-1.896c1.306,0,2.626,0.327,3.962,0.98V15.289z"/>
		<path fill="#FFFFFF" d="M74.088,25.509c0-6.018,0.591-9.911,1.774-11.68s3.131-2.654,5.844-2.654c3.105,0,5.17,0.989,6.193,2.969
			c1.023,1.979,1.535,5.542,1.535,10.69c0,4.611-0.229,7.808-0.686,9.592s-1.248,3.096-2.373,3.937
			c-1.125,0.841-2.652,1.262-4.582,1.262c-1.988,0-3.512-0.388-4.571-1.164c-1.059-0.775-1.847-2.034-2.362-3.774
			C74.346,32.947,74.088,29.888,74.088,25.509z M85.516,25.726c0-5.263-0.309-8.514-0.928-9.753s-1.546-1.859-2.783-1.859
			c-1.455,0-2.452,0.743-2.991,2.229c-0.539,1.486-0.808,3.99-0.808,7.513v1.522c0,3.929,0.218,6.796,0.655,8.601
			c0.437,1.805,1.485,2.707,3.143,2.707c1.019,0,1.892-0.507,2.62-1.522c0.728-1.015,1.092-3.82,1.092-8.416V25.726z"/>
		<path fill="#FFFFFF" d="M103.155,39.45H93.121V11.719h3.744v24.618h6.291V39.45z"/>
		<path fill="#FFFFFF" d="M106.646,11.719h3.744V39.45h-3.744V11.719z"/>
		<path fill="#FFFFFF" d="M114.925,11.719h5.398c2.554,0,4.567,0.961,6.04,2.884s2.209,5.54,2.209,10.851
			c0,5.122-0.646,8.736-1.937,10.84s-3.613,3.156-6.965,3.156h-4.745V11.719z M118.669,14.571v22.072c1.567,0,2.757-0.29,3.57-0.871
			s1.418-1.662,1.818-3.243c0.399-1.582,0.599-3.954,0.599-7.118c0-4.034-0.374-6.849-1.121-8.446
			c-0.747-1.596-2.202-2.394-4.364-2.394H118.669z"/>
		<path fill="#BE1E2D" d="M141.902,14.876h-6.378v8.75h5.703v3.156h-5.703V39.45h-3.7V11.719h10.078V14.876z"/>
		<path fill="#BE1E2D" d="M156.734,39.45h-3.609l-1.015-5.485h-5.87l-1.028,5.485h-3.563l5.986-27.731h3.069L156.734,39.45z
			 M151.611,31.157L149.174,18h-0.089l-2.305,13.157H151.611z"/>
		<path fill="#BE1E2D" d="M169.976,38.971c-1.117,0.537-2.235,0.805-3.352,0.805c-2.235,0-4.168-0.864-5.801-2.592
			c-1.633-1.728-2.449-5.337-2.449-10.826c0-5.954,0.816-9.962,2.449-12.025c1.633-2.062,3.61-3.093,5.931-3.093
			c0.871,0,1.945,0.145,3.221,0.435v3.396c-0.842-0.334-1.633-0.501-2.373-0.501c-1.451,0-2.692,0.737-3.722,2.212
			c-1.03,1.474-1.545,4.383-1.545,8.726c0,2.586,0.112,4.608,0.337,6.068c0.225,1.459,0.744,2.622,1.556,3.486
			c0.813,0.865,1.836,1.296,3.069,1.296c0.726,0,1.618-0.225,2.677-0.675V38.971z"/>
		<path fill="#BE1E2D" d="M173.271,11.719h3.744v10.796h5.768V11.719h3.744V39.45h-3.744V25.672h-5.768V39.45h-3.744V11.719z"/>
	</g>
</g>
</svg>
