<?xml version="1.0" encoding="utf-8"?>
<!-- Generator: Adobe Illustrator 16.0.0, SVG Export Plug-In . SVG Version: 6.00 Build 0)  -->
<!DOCTYPE svg PUBLIC "-//W3C//DTD SVG 1.1//EN" "http://www.w3.org/Graphics/SVG/1.1/DTD/svg11.dtd">
<svg version="1.1" id="Capa_1" xmlns="http://www.w3.org/2000/svg" xmlns:xlink="http://www.w3.org/1999/xlink" x="0px" y="0px"
	 width="204px" height="60px" viewBox="0 0 204 60" enable-background="new 0 0 204 60" xml:space="preserve">
<g>
	<path fill="none" d="M18.75,43.125c-3.111,0-5.625,2.512-5.625,5.625c0,3.111,2.514,5.625,5.625,5.625
		c3.112,0,5.625-2.514,5.625-5.625C24.375,45.637,21.862,43.125,18.75,43.125z"/>
	<polygon fill="none" points="22.5,20.625 13.125,20.625 5.757,30 22.5,30 	"/>
	<path fill="#BF1E2E" d="M203.667,0H22.5v15H11.25L0,30v18.75h7.5C7.5,54.955,12.544,60,18.75,60C24.957,60,30,54.955,30,48.75
		h173.667V0z M5.757,30l7.368-9.375H22.5V30H5.757z M18.75,54.375c-3.111,0-5.625-2.514-5.625-5.625
		c0-3.113,2.514-5.625,5.625-5.625c3.112,0,5.625,2.512,5.625,5.625C24.375,51.861,21.862,54.375,18.75,54.375z"/>
</g>
<path fill="#FFFFFF" d="M24.38,48.75c0,3.12-2.52,5.63-5.63,5.63c-3.11,0-5.63-2.51-5.63-5.63s2.52-5.63,5.63-5.63
	C21.86,43.12,24.38,45.63,24.38,48.75z"/>
</svg>
