<?xml version="1.0" encoding="utf-8"?>
<!-- Generator: Adobe Illustrator 16.0.0, SVG Export Plug-In . SVG Version: 6.00 Build 0)  -->
<!DOCTYPE svg PUBLIC "-//W3C//DTD SVG 1.1//EN" "http://www.w3.org/Graphics/SVG/1.1/DTD/svg11.dtd">
<svg version="1.1" xmlns="http://www.w3.org/2000/svg" xmlns:xlink="http://www.w3.org/1999/xlink" x="0px" y="0px" width="434px"
	 height="500px" viewBox="0 0 434 500" enable-background="new 0 0 434 500" xml:space="preserve">
<g id="OBJECTS">
	<g>
		<path fill="none" stroke="#FFFFFF" stroke-miterlimit="10" d="M116.681,338.043c0.809,2.145,1.616,9.656-0.265,12.614
			c-1.874,2.948-1.067,3.756,0.81,4.822c1.88,1.079,2.683,3.762,2.683,5.906c0,2.146,1.342,1.886,1.611,6.444
			c0.264,4.559,1.341,7.774,2.952,9.656c1.258,1.47,1.026,3.727,0.364,5.423c2.253,1.662,4.778,3.266,6.997,4.058
			c5.597,2.004,7.599,3.599,7.988,5.596c0.41,2.001,5.204,5.604,6.405,2.801c1.195-2.789,4.391-1.195,6.792-1.195
			c2.404,0,2.8,2.797,3.187,4.39c0.406,1.6,5.997,0.809,8.006,1.999c1.994,1.201,2.791,5.597,5.593,7.199
			c2.8,1.592,5.186-2.002,7.195-0.801c1.995,1.197,7.198,2.393,10.393,1.197c3.188-1.197,5.192,1.195,9.188,0.803
			c3.985-0.404,9.19,1.191,10.384,2.393c0.636,0.629,4.014,1.258,7.09,1.717c0.797-1.639-0.752-6.697-0.504-7.943
			c0.263-1.338,9.656-9.655,11.267-11.537c1.611-1.874,4.029-1.874,5.367-4.288c1.346-2.421-3.756-10.2-4.83-11.812
			c-1.072-1.606-1.604-8.045-0.801-10.733c0.801-2.684-4.027-4.295-4.027-6.171c0-1.879,4.559-5.103,6.981-6.169
			c2.412-1.079,1.608-8.594-0.542-10.47c-2.148-1.88-3.215-5.361-1.881-9.123c1.343-3.75-8.043-6.703-9.391-6.703
			c-0.219,0-0.354-0.241-0.443-0.561c-8.382,1.554-29.837-0.68-31.458-1.326c-1.062-0.425-3.78-1.403-6.114-2.233
			c-1.067,1.775-3.284,3.402-6.619,3.402c-5.182,0-5.546-5.187-5.721-7.511c-0.168-2.324-20.927,1.97-26.478,7.511
			c-5.542,5.547-18.425,3.396-18.773,6.433c-0.269,2.212-2.201,3.356-3.459,2.738C116.541,337.112,116.524,337.617,116.681,338.043z
			"/>
		<path fill="none" stroke="#FFFFFF" stroke-miterlimit="10" d="M136.229,418.15c-3.195-3.604-11.184-3.604-11.184-3.604
			s-0.801,3.604-2.003,5.596c-1.004,1.672-6.81,1.652-10.532,0.646c-1.055,1.381-5.888,2.459-6.555,4.457
			c-0.81,2.42-6.708,1.078-4.827,7.512c1.874,6.441-2.95,4.303-4.828,3.49c-1.882-0.801-10.202,0.271-12.347,2.414
			c-2.15,2.15-5.103,1.607-6.984,0.537c-1.874-1.064-5.625-1.607-7.24,1.07c-1.61,2.688-4.561-2.135-6.982-1.877
			c-2.408,0.27-1.339,5.369-1.339,6.447c0,1.063,3.76,4.289,6.169,3.221c2.417-1.076,5.373,0.264,7.518,1.605
			c2.146,1.348,6.17-1.07,7.512-2.412c1.346-1.352,8.858-1.352,9.662-1.352c0.806,0,1.071,4.301,2.419,5.111
			c1.335,0.803,6.44,1.34,11.004,1.604c4.558,0.273,11.265,2.414,13.415,2.414c2.146,0,5.629-3.76,10.452-3.76
			c4.833,0,7.517-2.947,8.326-2.676c0,0,0.035,0.027,0.046,0.037c0.347-1.492,0.908-2.699,1.958-2.852
			c1.958-0.27,0.556-3.637,1.958-5.314c1.404-1.676-1.121-5.037,1.404-4.762c2.515,0.285,5.311,0.564,5.311-3.072
			c0-1.227,0.663-2.311,1.623-3.217c-2.768-3.875-4.755-10.076-4.755-10.076S139.432,421.744,136.229,418.15z"/>
		<path fill="none" stroke="#FFFFFF" stroke-miterlimit="10" d="M213.813,428.199c-0.925-0.303-1.942-0.943-2.835-1.727
			c-3.366-0.756-6.62-1.746-7.612-2.732c-1.993-1.996-9.979-3.197-11.186-3.598c-1.191-0.408-8.794,7.191-11.195,7.191
			c-2.398,0-12.789,1.201-12.789,3.992c0,2.801-12.775,3.211-16.38,0c-0.567-0.504-1.112-1.18-1.634-1.91
			c-0.96,0.906-1.623,1.99-1.623,3.217c0,3.637-2.796,3.357-5.311,3.072c-2.525-0.275,0,3.086-1.404,4.762
			c-1.401,1.678,0,5.045-1.958,5.314c-1.049,0.152-1.611,1.359-1.958,2.852c0.84,0.406,2.9,4.523,2.9,4.523
			s-0.106,0.102-0.274,0.248c2.722,1.627,8.274,5.119,10.061,7.5c2.402,3.195,9.194,3.6,12.388,2.799
			c3.201-0.789,16.792-5.189,16.792-5.189s3.201,1.195,5.193,1.588c0.471,0.104,1.746,0.309,3.402,0.557
			c0.977-1.008,3.98-1.873,7.186-5.09c3.755-3.752,9.391-17.176,10.997-18.242c1.609-1.078,5.91-3.49,8.054-5.094
			C216.766,430.613,216.239,429.008,213.813,428.199z"/>
		<path fill="none" stroke="#FFFFFF" stroke-miterlimit="10" d="M164.211,400.557c-2.009-1.19-7.6-0.399-8.006-1.999
			c-0.387-1.593-0.783-4.39-3.187-4.39c-2.402,0-5.598-1.594-6.792,1.195c-1.201,2.803-5.995-0.8-6.405-2.801
			c-0.389-1.997-2.391-3.592-7.988-5.596c-2.218-0.792-4.743-2.396-6.997-4.058c-0.184,0.482-0.402,0.932-0.638,1.281
			c-1.073,1.616-4.828-1.338-6.44,0.274c-1.612,1.61-6.977,1.875-9.924,4.563c-2.954,2.684-9.128,4.02-12.617,4.828
			s-0.531,4.026,0.804,6.443c1.348,2.404,1.348,8.316,4.03,10.197c2.684,1.875,11.536,7.508,12.611,9.391
			c0.185,0.32,0.071,0.625-0.153,0.904c3.722,1.006,9.528,1.025,10.532-0.646c1.202-1.992,2.003-5.596,2.003-5.596
			s7.989,0,11.184,3.604c3.203,3.594,9.199,1.189,9.199,1.189s0.333,1.021,0.872,2.443c0.864-1.977,1.992-3.713,3.364-3.914
			c3.373-0.477,8.172-0.959,11.542-5.77c1.744-2.477,4.619-4.447,7.01-5.77C166.597,404.354,165.762,401.496,164.211,400.557z"/>
		<path fill="none" stroke="#FFFFFF" stroke-width="0.5" stroke-miterlimit="10" d="M196.58,408.955
			c-3.996,0.393-6.001-2-9.188-0.803c-3.194,1.195-8.398,0-10.393-1.197c-2.01-1.201-4.395,2.393-7.195,0.801
			c-0.62-0.355-1.135-0.857-1.59-1.426c-2.391,1.322-5.266,3.293-7.01,5.77c-3.369,4.811-8.169,5.293-11.542,5.77
			c-1.372,0.201-2.5,1.938-3.364,3.914c1.099,2.834,3.115,7.41,5.518,9.543c3.605,3.211,16.38,2.801,16.38,0
			c0-2.791,10.39-3.992,12.789-3.992c2.401,0,10.003-7.6,11.195-7.191c1.206,0.4,9.192,1.602,11.186,3.598
			c0.993,0.986,4.246,1.977,7.612,2.732c-1.414-1.252-2.531-2.854-2.531-4.18c0-2.139,4.036-7.775,5.366-8.848
			c0.113-0.09,0.169-0.248,0.241-0.381c-3.076-0.459-6.455-1.088-7.09-1.717C205.77,410.146,200.565,408.551,196.58,408.955z"/>
		<path fill="none" stroke="#FFFFFF" stroke-miterlimit="10" d="M285.915,472.475c-2.501-0.354-5.729-1.42-4.652-2.857
			c0.067-0.09,0.212-0.27,0.32-0.408c-3.351-2.715-4.233-11.486-2.095-13.633c2.729-2.732-4.382-13.123-7.656-16.947
			c-1.537-1.801-4.868-7.779-7.977-13.641c-2.84,0.92-5.354,1.955-5.843,2.775c-1.072,1.773-4.661,3.58-6.799,3.58
			c-2.146,0-4.295-1.078-6.086,0.705c-1.79,1.787-4.287,2.504-5.364,1.439c-1.073-1.08-4.655-2.145-7.165-2.145
			c-2.492,0-10.363-2.156-12.152-2.156c-1.062,0-2.785,0.146-4.661,0.402c0.405,0.775,0.09,1.705-1.156,2.643
			c-2.145,1.604-6.445,4.016-8.054,5.094c-1.606,1.066-7.242,14.49-10.997,18.242c-3.757,3.758-7.248,4.297-7.517,5.633
			c-0.27,1.342,4.295,4.836,4.295,6.979c0,2.156,1.066,4.295,4.025,4.295c2.952,0-0.27,6.979,1.604,7.516
			c1.887,0.533,13.418,1.34,13.418,4.025c0,2.09,1.271,3.846,0.717,5.293c3.244,0.541,5.624,4.953,6.893,4.637
			c1.434-0.357,11.094,1.787,12.879,1.432c1.785-0.359,10.02,0,12.883,0.355c2.857,0.359,6.074-1.072,8.577-3.578
			c2.51-2.508,11.464-2.861,14.322-2.508c2.852,0.367,8.584,1.076,9.661,2.873c0.562,0.932,3.93,2.336,7.338,3.48
			c0.402-1.771-0.119-4.086-0.013-6.354c0.179-3.754,2.324-9.479,6.083-9.832c3.753-0.361,6.796-0.361,6.263-6.615
			c-0.012-0.221-0.012-0.383-0.028-0.576c-1.903-1.631-3.683-3.006-4.269-3.006C291.285,469.617,286.983,472.627,285.915,472.475z"
			/>
		<path fill="none" stroke="#FFFFFF" stroke-miterlimit="10" d="M290.925,434.553c-1.438-4.646-6.074-6.443-8.588-6.443
			c-2.504,0-6.799-5.715-9.662-5.365c-1.556,0.193-5.427,1.131-8.821,2.244c3.109,5.861,6.44,11.84,7.977,13.641
			c3.274,3.824,10.385,14.215,7.656,16.947c-2.138,2.146-1.255,10.918,2.095,13.633c1.554-2.029,6.832-8.674,6.832-10.686
			c0-2.143,0.364-6.445,4.649-5.367c4.299,1.072,8.23,2.863,8.23,1.434c0-1.434-1.074-6.08-2.859-7.877
			C296.652,444.932,292.361,439.207,290.925,434.553z"/>
		<path fill="none" stroke="#FFFFFF" stroke-miterlimit="10" d="M420.438,413.975c0-1.068,3.756-2.947,3.487-5.092
			c-0.27-2.145-3.487-2.42-6.976-4.295c-3.489-1.887-6.98-1.076-10.202-2.684c-3.212-1.607-9.927-0.537-9.927-1.607
			c0-1.072-4.288-4.563-5.365-6.443c-1.072-1.875-4.558-0.808-6.705,0.533c-2.154,1.347-4.036,1.88-6.174,0.546
			c-2.145-1.349-4.025-3.493-5.898-2.69c-1.888,0.804-5.373,0.269-4.565-2.419c0.803-2.683-3.486-8.577-5.367-9.38
			c-1.881-0.814-7.516,0.528-8.854-2.15c-1.346-2.69-3.76-4.833-2.683-6.708c1.067-1.881-0.269-6.983-1.61-9.128
			c-1.349-2.144-8.051-1.875-9.925-1.073c-1.881,0.804-6.179-0.802-8.058,0.27c-1.881,1.079-2.945,2.948-5.634,2.948
			c-1.494,0-2.492-0.197-3.307-1.383c-2.902,1.309-7.775,1.574-7.775,1.574s-7.168,5.72-7.168,7.863
			c0,2.146-0.342,5.728-2.145,3.941c-1.786-1.791-9.297-1.795-11.082-0.718c-1.798,1.073-4.651-4.294-7.876-2.504
			c-3.216,1.786-7.511-2.502-7.875-0.719c-0.355,1.796-5.003,0.36-8.23-1.071c-3.211-1.431-8.942,0.719-11.087-1.791
			c-2.146-2.502-16.102-2.502-20.749-2.502s-5.727,2.502-7.877,4.653c-1.936,1.947-4.188,1.543-6.472,1.442
			c0.201,1.807,0.555,3.414,1.015,4.098c1.074,1.612,6.176,9.39,4.83,11.812c-1.338,2.414-3.756,2.414-5.367,4.288
			c-1.611,1.882-11.004,10.199-11.267,11.537c-0.27,1.342,1.611,7.248,0.263,8.324c-1.331,1.072-5.366,6.709-5.366,8.848
			c0,2.15,2.954,5.104,5.366,5.906c1.017,0.348,1.675,0.824,1.97,1.391c1.878-0.256,3.599-0.402,4.659-0.402
			c1.792,0,9.663,2.156,12.154,2.156c2.51,0,6.092,1.064,7.165,2.145c1.077,1.064,3.574,0.348,5.364-1.439
			c1.792-1.783,3.94-0.705,6.086-0.705c2.138,0,5.727-1.807,6.799-3.58c1.07-1.787,11.813-4.662,14.664-5.02
			c2.863-0.35,7.158,5.365,9.662,5.365c2.514,0,7.15,1.797,8.588,6.443c1.436,4.654,5.727,10.379,7.51,12.16
			c1.785,1.797,2.859,6.443,2.859,7.877c0,1.43-3.931-0.361-8.23-1.434c-4.285-1.078-4.649,3.225-4.649,5.367
			c0,2.146-6.077,9.656-7.151,11.094c-1.077,1.438,2.15,2.504,4.652,2.855c1.068,0.154,5.37-2.855,6.792-2.855
			c0.586,0,2.366,1.375,4.269,3.006c-0.411-5.602,0.752-5.285,5.747-9.08c5.192-3.934,5.728-11.271,10.375-12.17
			c4.659-0.898,6.619-3.049,13.423-1.977c6.799,1.078-3.396,5.367,1.239,7.871c3.066,1.65,10.27,0.836,15.069,1.088
			c6.129-1.039,12.52-0.924,18.832,0.254c3.138-2.822,9.192-6.678,13.156-7.057c5.55-0.539,10.02-2.156,15.383-4.65
			c2.165-1.01,5.964-2.033,9.843-2.771c-0.583-2.525-1.334-5.502,0.27-5.738c1.875-0.258,7.513-6.438,9.395-6.438
			c1.879,0,9.923,1.609,9.923,0.277c0-1.35,2.687-5.908,2.144-7.256c-0.531-1.336-3.217-3.209-2.677-4.559
			c0.533-1.336,4.289-1.336,4.289-2.953C423.386,415.861,420.438,415.053,420.438,413.975z"/>
		<path fill="none" stroke="#FFFFFF" stroke-miterlimit="10" d="M222.06,293.155c3.279,0,10.948,1.639,15.32,0
			c4.368-1.638,4.368,3.292,7.107,2.728c2.729-0.544,8.203,3.291,11.486,6.031c1.744,1.453,3.823,2.615,6.124,3.952
			c0.522-0.894,1.229-1.774,2.353-2.616c2.864-2.145,5.721-1.079,8.226-1.079c2.51,0,2.863-2.855,4.658-4.289
			c1.006-0.807,2.571-1.27,3.762-1.516c-0.959-1.975-1.011-5.838-2.606-7.432c-1.879-1.875-4.563-5.103-3.754-6.98
			c0.803-1.879,0.803-4.562-1.347-6.705c-0.937-0.939-1.656-2.038-2.042-3.089c-4.364-0.561-10.235-1.188-11.549-0.751
			c-2.15,0.718-10.73-6.086-12.166-7.163c-0.937-0.698-7.304-0.332-13.035,0.201c-3.3,3.66-0.921,6.35-1.094,11.969
			c-0.178,5.727-6.446,4.653-9.834,4.653c-3.408,0-8.956-10.2-10.737-12.528c-1.794-2.32-7.527,2.868-11.634,5.367
			c-4.115,2.508-1.965,7.336-4.829,9.66c-2.855,2.326-4.648,6.265-1.796,11.454c0.118,0.212,0.197,0.431,0.309,0.639
			c3.574-0.281,7.387-0.942,9.582-2.504C208.39,290.417,218.788,293.155,222.06,293.155z"/>
		<path fill="none" stroke="#FFFFFF" stroke-miterlimit="10" d="M201.745,312.815c1.341,1.884,5.637,3.492,7.247,2.688
			c1.605-0.804,6.703,1.876,6.703,4.022c0,2.149-1.336,8.591,0,8.591c1.22,0,8.95,2.397,9.474,5.631
			c3.466,0.084,7.402,0.259,8.873,0.629c2.869,0.713,4.647-1.073,6.071-2.864c1.438-1.791,6.442-2.503,7.872-2.503
			c1.438,0,1.438-3.935,1.792-5.732c0.359-1.779,3.942-5.001,6.086-5.714c2.151-0.714,1.785-3.224,3.936-3.224
			s1.786-2.868,1.43-4.659c-0.212-1.083,0.041-2.44,0.871-3.815c-2.3-1.336-4.379-2.499-6.124-3.952
			c-3.283-2.741-8.757-6.575-11.486-6.031c-2.739,0.563-2.739-4.366-7.107-2.728c-4.372,1.639-12.042,0-15.32,0
			c-3.271,0-13.669-2.738-17.497,0c-2.195,1.562-6.008,2.223-9.582,2.504c2.443,4.996,1.55,10.048-1.197,13.136
			c-1.947,2.199-0.813,2.492,0.612,3.357C197.336,311.878,200.666,311.31,201.745,312.815z"/>
		<path fill="none" stroke="#FFFFFF" stroke-miterlimit="10" d="M31.539,351.913c-2.868,4.285-6.792,4.645-6.088,5.711
			c0.724,1.078,5.02,4.657,3.94,6.444c-1.072,1.796-2.505,0.725-2.505,3.94c0,3.218-5.014,3.218-6.795,3.218
			c-1.793,0,0.353,3.226-0.718,5.725c-1.076,2.503-1.076,7.511-1.434,9.66c-0.352,2.146,3.581,5.727,3.224,7.512
			c-0.357,1.795-3.224,3.222-2.5,4.649c0.664,1.363,3.25,3.413,3.825,10.026c1.236,0.359,2.248,0.824,2.692,1.426
			c1.616,2.145,4.298,3.75,7.779,3.75c3.494,0,4.833,2.426,6.445,2.148c1.61-0.262,5.907,1.084,2.423,4.031
			c-3.494,2.947-4.035,6.439-4.831,9.926c-0.523,2.262-0.495,5.395-1.054,7.336c3.403,0.297,8.44,0.551,10.267-0.355
			c2.857-1.428,4.644-1.428,8.223-0.357c2.131,0.637,4.988,2.027,6.988,3.049c0.219-0.719,0.6-1.268,1.327-1.359
			c2.421-0.258,5.372,4.564,6.982,1.877c1.614-2.678,5.366-2.135,7.24-1.07c1.881,1.07,4.833,1.613,6.984-0.537
			c2.145-2.143,10.465-3.215,12.347-2.414c1.878,0.813,6.702,2.951,4.828-3.49c-1.881-6.434,4.018-5.092,4.827-7.512
			c0.8-2.416,7.779-3.479,6.708-5.361c-1.075-1.883-9.927-7.516-12.611-9.391c-2.682-1.881-2.682-7.793-4.03-10.197
			c-1.335-2.417-4.292-5.635-0.804-6.443s9.663-2.144,12.617-4.828c2.947-2.689,8.312-2.954,9.924-4.563
			c1.612-1.612,5.367,1.342,6.44-0.274c1.076-1.606,1.875-4.829,0.273-6.704c-1.611-1.882-2.688-5.098-2.952-9.656
			c-0.269-4.559-1.611-4.299-1.611-6.444c0-2.144-0.803-4.827-2.683-5.906c-1.877-1.066-2.684-1.875-0.81-4.822
			c1.88-2.958,1.073-10.469,0.265-12.614c-0.156-0.426-0.14-0.931-0.052-1.472c-0.483-0.224-0.863-0.693-1.017-1.48
			c-0.537-2.863-2.496-3.935-7.152-3.935c-4.652,0,2.858-4.654,1.068-6.98c-1.779-2.318-6.438,4.291-10.723,2.858
			c-4.301-1.42-9.84,5.02-13.595,7.876c-3.76,2.868-9.128-0.532-6.266-4.655c2.857-4.109,0-3.753-4.296-2.138
			c-4.295,1.606-9.481-0.357-8.948-4.299c0.14-0.987-0.178-1.914-0.703-2.784c-2.097,0.29-3.707,0.357-4.477,0.1
			c-1.922-0.635-6.285-0.982-11.044-1.077c1.423,2.082,2.962,4.119,2.093,5.732c-1.605,3.047,0.902,5.91,3.222,10.373
			c2.325,4.481-5.005,1.971-5.188,4.834c-0.182,2.862-6.793-0.179-8.946-1.256c-2.138-1.069-9.301-0.355-9.119,1.436
			c0.072,0.713-0.04,1.696-0.351,2.538C32.144,347.16,32.572,350.348,31.539,351.913z"/>
		<path fill="none" stroke="#FFFFFF" stroke-miterlimit="10" d="M302.373,196.28c2.865-6.439,15.728-11.414,17.895-17.172
			c1.066-2.875,1.426-4.301-3.223-9.667c-4.652-5.366-15.021-8.942-15.387-11.801c-0.364-2.874,7.875-3.221,7.512-6.802
			c-0.36-3.581-4.643-3.57-6.446-6.433c-1.785-2.865,2.158-4.666,1.797-6.086c-0.36-1.425-5.727-2.144-6.086-3.942
			c-0.359-1.783,3.588-1.425,2.859-3.569c-0.712-2.144-4.282-6.091-1.781-9.307c2.51-3.218,7.877,0,3.931-7.151
			c-3.931-7.159-10.017-16.101-11.447-18.255c-1.438-2.146,1.43-5.728,3.582-7.143c2.149-1.437,7.51-6.802,7.51-8.951
			c0-2.146-6.799-7.878-8.583-8.943c-1.798-1.08-5.727-0.713-7.51-4.3c-1.803-3.57-3.582-4.645-1.803-6.794
			c1.803-2.144,1.803-4.289,1.803-6.444c0-2.145,3.93-0.362,4.636-3.575c0.326-1.466,1.358-3.071,2.678-4.409
			c0.011-2.442,0.275-5.069,0-6.737c-0.579-3.456-10.347-4.603-12.641-8.627c-2.308-4.013-8.051-2.297-9.781,0
			c-1.718,2.298-12.069-0.571-12.069,2.88c0,3.448-7.467,4.023-7.467,8.046c0,4.024,3.445,10.917-2.301,10.35
			c-5.75-0.578-1.731,2.297-5.176,6.895c-3.453,4.599-3.453-2.88-6.899-1.73c-3.442,1.15-7.467-3.454-9.197-0.58
			c-1.724,2.886-7.471,0.58-13.22-0.57c-5.754-1.144-8.617-9.185-13.221-9.771c-3.053-0.373-6.314,2.058-8.019,5.903
			c4.449,2.88,7.37,6.966,13.191,9.622c6.321,2.874,17.82,6.315,17.256,10.347c-0.584,4.017-2.312,9.765,0.564,11.496
			c2.878,1.718-0.564,9.196,2.878,10.923c3.445,1.729,2.301,10.34-0.579,10.34c-2.863,0,0.579,4.598,2.308,6.311
			c0.777,0.799,1.414,3.132,1.699,5.972c3.532,0.854,6.671,2.638,9.734,4.009c4.834,2.146,4.111,5.535,4.294,9.297
			c0.176,3.748,0.35,5.892-2.142,4.288c-2.504-1.604-5.193,0-6.625,5.374c-1.438,5.359-8.23,11.804-12.344,12.164
			c-4.122,0.354-3.755,4.648-7.158,5.541c-3.391,0.891-6.612,2.863-6.434,6.617c0.174,3.757-5.006,4.115-8.412,4.115
			c-3.398,0-2.68,6.081-5.369,7.686c-2.679,1.619-2.149,3.763,0.358,6.983c2.505,3.224,0.36,6.087,1.248,8.411
			c0.903,2.325,4.839,7.69,2.149,13.592c-2.678,5.904-5.54,13.241-3.216,12.529c2.318-0.714,7.689,4.832,11.271,4.473
			c3.576-0.369,3.939,4.997,7.331,3.931c3.397-1.066,3.397,3.21,13.243,2.869c9.842-0.359,29.69-8.584,37.567-8.584
			c4.463,0,8.036-0.54,10.846-1.234c1.691-2.543,3.742-5.306,5.788-7.354C288.779,206.291,299.513,202.719,302.373,196.28z"/>
		<path fill="none" stroke="#FFFFFF" stroke-miterlimit="10" d="M70.536,290.014c-1.793-0.889-2.51-6.626-0.365-8.4
			c2.145-1.791,3.051-8.601,1.256-10.383c-1.777-1.794-8.232,0-8.766,4.825c-0.539,4.829-5.721,2.684-7.151,3.756
			c-1.435,1.073,2.854,3.216,0.53,5.366c-2.321,2.145-3.216-3.223-6.974-3.564c-3.755-0.37-4.113,5.709-6.076,8.758
			c-1.976,3.043-0.724,9.483,0,13.775c0.71,4.289,5.898,6.973,4.642,10.553c-0.575,1.664,0.599,3.532,1.846,5.357
			c4.759,0.095,9.122,0.442,11.044,1.077c0.77,0.257,2.38,0.19,4.477-0.1c-1.573-2.56-5.106-4.644-4.837-6.513
			c0.36-2.493,3.758-0.904,6.265,1.246c2.494,2.146,8.054,2.51,8.58-0.174c0.329-1.655-0.893-9.303-4.29-7.512
			c-3.403,1.792-4.291,1.073-5.549-0.718c-1.249-1.791,2.505-4.646,3.402-7.509c0.889-2.869,6.792-1.804,7.688-4.123
			C77.16,293.415,72.315,290.91,70.536,290.014z M97.556,300.924c-1.438-0.897-2.511,2.503-4.121,2.864
			c-1.612,0.358-3.396-6.803-4.116-2.864c-0.717,3.936-4.293-1.609-7.869,3.392c-3.58,5.02,2.145,9.487,4.646,11.104
			c2.505,1.605-0.18,3.928-3.397,3.217c-3.217-0.716-1.249,4.641,3.217,5.366c4.469,0.712,9.301-7.871,8.77-10.019
			C94.141,311.838,99.246,301.981,97.556,300.924z"/>
		<path fill="none" stroke="#FFFFFF" stroke-miterlimit="10" d="M229.938,110.632c-1.729-1.713-5.171-6.311-2.308-6.311
			c2.879,0,4.023-8.611,0.579-10.34c-3.442-1.727,0-9.205-2.878-10.923c-2.875-1.73-1.148-7.479-0.564-11.496
			c0.564-4.032-10.935-7.474-17.256-10.347c-6.322-2.874-9.189-7.472-14.365-10.347c-5.171-2.874-6.901,4.593-6.901,9.203
			c0,4.595-4.596,5.169-8.042,2.289c-3.455-2.875-7.479,0-12.649-2.289c-5.175-2.31-2.868,5.169-2.868,8.617
			c0,3.439-5.755,3.439-9.201,3.439c-3.454,0-9.196,2.879-9.196,6.9c0,4.021-5.168,6.32-3.453,8.629
			c1.724,2.294-0.57,4.598-2.875,6.325c-2.293,1.718-4.589,7.461-6.318,9.19c-1.724,1.723,1.151,4.598-2.298,6.899
			c-3.439,2.291-7.472,0.562-9.194,2.291c-1.722,1.73,0,5.76-0.566,10.936c-0.586,5.159-4.61,10.913-8.056,15.505
			c-3.441,4.604,1.151,5.761,2.88,6.321c1.716,0.583,1.716,3.457,0,6.901c-1.729,3.461-5.755,1.149-8.05,0.586
			c-2.295-0.586-8.623,2.293-12.07,8.04c-3.452,5.749-2.305,9.197-1.156,12.07c1.145,2.875-2.868,6.325,0,12.074
			c2.874,5.75-1.149,6.9-0.566,11.498c0.566,4.597,7.464,4.02,8.045,8.617c0.573,4.592-2.303,6.32-4.605,6.32
			c-2.294,0-1.717,4.597,0.587,5.75c2.288,1.156,1.715,9.194,0.571,11.502c-1.158,2.296-8.624,0-8.05,2.863
			c0.571,2.88-1.73,7.472-1.73,9.778c0,2.296-0.573,9.767-2.874,8.039c-0.903-0.673-2.355-0.725-3.774-0.533
			c0.005,0.358,0.011,0.718,0,1.133c-0.179,4.469,1.435,8.948,5.362,12.16c3.936,3.229,0.894,8.051,4.289,12.525
			c3.401,4.479,2.324,7.696,6.079,10.918c3.762,3.216,4.121,5.007,2.511,9.123c-1.606,4.119,3.222,3.036,3.396,5.54
			c0.19,2.515-1.062,7.69,0.19,10.201c1.246,2.502,3.755,0,9.474-0.176c5.722-0.178,4.296-3.762,4.472-7.162
			c0.173-3.396,3.046-1.785,3.755-3.93c0.717-2.151,5.904-2.684,10.018-0.91c4.109,1.804,6.254-1.241,6.978-5.535
			c0.708-4.293,3.035,0.899,4.29,1.787c1.251,0.897,5.014-6.615,6.792-11.44c1.792-4.841-0.173-3.937-4.288,0.705
			c-4.116,4.655-1.786-4.642-0.174-8.402c1.598-3.756,1.43-14.682,1.966-17.172c0.542-2.504,1.609-6.265,6.796-7.337
			c5.188-1.073,11.984-7.512,10.919-10.188c-1.078-2.69,7.152-7.153,7.152-9.841c0-2.69-8.587-10.919-11.445-12.706
			c-2.868-1.784-9.122-0.359-8.59-2.324c0.533-1.963-0.723-9.661-1.432-13.596c-0.717-3.941,4.464-8.051,4.464-11.811
			c0-3.756-0.173-8.05,3.221-9.302c3.396-1.246,1.258-4.464,5.733-5.541c4.462-1.073,3.577-7.511,8.409-9.482
			c4.826-1.964,5.176-3.587,11.446-6.612c6.26-3.05,16.813-10.202,18.611-13.961c1.778-3.751-6.452-7.697-1.258-11.634
			c5.187-3.927,0.891-8.408,4.646-9.834c3.759-1.437,5.191-3.396,7.878-6.259c2.679-2.863,6.253-0.172,12.691-1.251
			c2.359-0.393,4.513-0.203,6.552,0.292C231.351,113.764,230.715,111.431,229.938,110.632z M169.454,268.006
			c-6.791,0.185-9.974,13.557-8.228,15.752C162.663,285.542,176.248,267.828,169.454,268.006z"/>
		<path fill="none" stroke="#FFFFFF" stroke-miterlimit="10" d="M275.538,245.193c1.48-3.195,5.361-3.739,2.464-7.943
			c-0.546,0.453-1.331,0.874-2.639,1.239c-5.193,1.437-16.465-3.569-22.905-2.324c-6.443,1.247-19.497,1.247-22.539,4.468
			c-3.042,3.223-10.733,4.117-7.339,6.979c3.409,2.867,0,4.294,2.504,7.698c2.509,3.399,3.762,4.832,7.165,4.108
			c3.403-0.709,6.08,1.064,2.494,4.828c-0.051,0.078-0.086,0.139-0.147,0.201c5.731-0.532,12.098-0.898,13.035-0.201
			c1.436,1.077,10.016,7.88,12.166,7.163c1.314-0.436,7.185,0.19,11.549,0.751c-0.507-1.335-0.468-2.592,0.43-3.352
			c1.612-1.34,5.104-1.34,3.223-4.025c-1.875-2.682-2.414-3.215-2.678-6.443c-0.275-3.213-1.077-4.825-0.808-6.974
			C271.775,249.223,273.926,248.684,275.538,245.193z M212.203,253.877c-6.433,1.789-7.387,10.693-4.822,10.559
			c3.215-0.19,10.553-6.27,12.523-8.24C221.87,254.23,218.647,252.085,212.203,253.877z M217.569,248.684
			c1.442-2.683-10.33-1.504-7.685,0.898C211.855,251.378,216.149,251.367,217.569,248.684z"/>
		<path fill="none" stroke="#FFFFFF" stroke-miterlimit="10" d="M307.025,34.2c-0.719,2.689-5.539,2.15-5.367-0.533
			c0.176-2.679-7.512-4.829-7.875-6.09c-0.36-1.245,3.223-1.071,6.09,0.536c2.851,1.618,4.829,0.54,8.043-2.498
			c3.229-3.039,7.693-0.534,8.233-3.218c0.537-2.681-5.194-4.479-6.262-6.086c-1.077-1.613-5.186-3.76-9.121-3.04
			c-3.937,0.714-4.114-0.895-6.45-3.041c-2.318-2.147-9.464,1.432-9.464,6.438c0,5.013-4.486,3.757-2.875,1.073
			c1.617-2.682-2.143-5.905,1.438-6.799c3.582-0.885,1.606-6.256-5.014-6.793c-6.625-0.53-9.122,5.006-7.513,6.793
			c1.614,1.796-4.477,9.483-7.161,9.483c-2.68,0,0.364-6.614,0.183-10.195c-0.183-3.574-2.683-1.607-7.695,4.116
			c-5.001,5.719-8.757,10.911-11.621,11.444c-2.868,0.542-2.508-5.188,2.145-7.688c4.648-2.507,4.834-9.306,7.865-9.306
			c3.043,0,3.043-3.572-1.425-4.647c-4.476-1.072-5.195,3.934-6.625,5.368c-1.438,1.425-8.757-2.509-8.584-1.073
			c0.178,1.438-3.929,1.959-2.148,4.644c1.784,2.683-0.888,5.014-2.68,1.797c-1.791-3.222-6.26-0.721-8.405,2.857
			c-2.156,3.585-5.018,3.401-2.867,4.655c2.145,1.25,1.969,6.08-1.248,6.973c-3.226,0.903-1.974-8.767-4.472-7.871
			c-2.51,0.898-0.898-4.653,2.498-4.653s6.798-5.009,6.438-6.254c-0.593-2.098-4.287-1.612-4.287,1.07
			c0,2.684-5.368,2.149-9.836,1.964c-4.467-0.173-4.3,5.192,0.713,8.046c5.002,2.872-0.891,4.66-3.4,2.511
			c-2.504-2.147-6.434-1.077-9.123,0.173c-2.684,1.258,6.445,4.481,6.805,6.09c0.347,1.609-4.66-1.97-5.733-0.716
			c-1.071,1.258-6.078-0.893-6.439-3.94c-0.364-3.042-8.414,1.253-3.929,2.323c4.476,1.074,2.858,3.943,2.858,7.88
			c0,3.926-5.192,0.896-4.115-2.508c1.065-3.397-3.228-2.687-6.793-0.541c-3.581,2.15,0.539-3.933-0.898-6.975
			c-1.432-3.036-4.659,0-8.415,0.722c-3.757,0.713-5.715,0.886-3.392,3.396c2.325,2.504,1.971,6.078-1.085,5.543
			c-3.035-0.537-4.283,0-3.933,2.863c0.363,2.862-3.93,3.033-4.288,0.539c-0.354-2.501-6.44-1.793-8.23,1.081
			c-1.786,2.851-6.798,5.006-6.26,8.222c0.528,3.218,4.474-1.617,7.697-0.542c3.216,1.076-0.186,2.688,1.611,4.293
			c1.786,1.616,1.426,5.552-1.077,3.227c-2.505-2.323-5.727-3.052-6.266,0.708c-0.538,3.762-3.216-0.531-5.366-3.222
			c-2.145-2.683-4.289,5.019-6.613,3.222c-2.321-1.785,4.647-7.325,2.857-10.015c-1.786-2.678-3.045,1.616-7.152,5.725
			c-4.114,4.11-9.649,3.942-7.686,5.908c1.965,1.964-4.118,3.041-5.186,6.433c-1.08,3.408-9.486,4.659-14.859,8.242
			c-5.369,3.563,1.076,3.75,4.121,0.345c3.048-3.402,4.12-1.424,8.947-4.466c4.832-3.043,10.016-5.546,11.805-4.299
			c1.781,1.255,4.833,2.155,7.153-1.069c2.324-3.222,5.192-2.513,7.509-0.541c2.332,1.973-3.928,3.583-1.076,6.447
			c2.864,2.869-3.39,4.457-3.39,1.964c0-2.502-3.576-4.646-4.834-2.329c-1.259,2.329-3.397,4.822-5.721,5.013
			c-2.319,0.179-4.826,4.475-4.826,8.77c0,4.289-4.122,0-4.47,3.754c-0.359,3.755-6.088,10.37-11.097,15.197
			c-5.003,4.833-0.361,5.905-1.971,8.953c-1.605,3.039-7.518,0.354-9.471,1.607c-1.975,1.262,1.068,8.767-1.611,11.098
			c-2.688,2.317,0,5.534,0,8.222c0,2.677-6.977-1.61-7.511,1.073c-0.538,2.684-6.628,1.977-8.418,2.684
			c-1.783,0.718,3.587,5.001,6.809,7.511c3.217,2.509-3.042,4.474-3.76,1.611c-0.716-2.863-5.192,1.789-10.734,4.294
			c-5.549,2.503-3.218,7.512-7.508,7.691c-4.299,0.178-3.047,6.972-5.909,9.116c-2.868,2.156-2.145-4.996-6.624-5.181
			c-4.467-0.175-4.111,3.037-1.43,6.797c2.68,3.752-4.11,0.899-6.621,4.121c-2.503,3.219-9.666,1.606-11.625,4.288
			c-1.962,2.685,5.359,2.685,6.437,4.829c1.072,2.155-6.437,1.073-10.376,0.18c-3.933-0.886-2.854,5.007-6.441,4.295
			c-3.578-0.719-8.045,3.036-5.536,5.551c2.504,2.504-1.976,2.859-4.479,1.247c-2.503-1.604-4.647,2.325-5.545,5.367
			c-0.899,3.042,4.83,4.66,4.652,6.074c-0.177,1.437-4.652,3.762-1.436,4.491c3.225,0.702,0.898,3.564-1.247,4.457
			c-2.15,0.91-2.15,3.054,0,5.732c2.145,2.688-3.76,3.216-0.897,7.337c2.863,4.109,5.001-1.084,6.26,1.959
			c1.258,3.048,4.65,0.364,8.59-3.217c3.934-3.571,5.369,3.936,2.145,3.761c-3.218-0.18-6.976,1.773-6.266,5.008
			c0.721,3.209-5,2.677-4.821-1.257c0.169-3.931-6.62,0.712-4.121,3.581c2.507,2.857-0.89,4.468-0.89,7.152
			c0,2.684,4.832,2.144,6.796-0.9c1.963-3.03,5.188-2.324,6.436,0.725c1.259,3.036-3.039,0.712-3.039,4.822
			c0,4.115-2.68,0.539-5.013,3.761c-2.319,3.224,9.129,9.123,12.707,10.016c3.579,0.897,6.975,4.826,14.129,3.762
			c7.163-1.08,20.752-14.311,22.539-16.642c1.798-2.327,5.729,0.361,8.409-1.789c2.687-2.145,1.076-7.686,3.048-8.751
			c1.965-1.09,3.035,5.894,4.829,6.606c1.617,0.641,2.79,1.914,2.864,5.485c1.419-0.192,2.872-0.141,3.774,0.533
			c2.3,1.728,2.874-5.743,2.874-8.039c0-2.307,2.301-6.898,1.73-9.778c-0.574-2.863,6.892-0.567,8.05-2.863
			c1.144-2.308,1.716-10.346-0.571-11.502c-2.304-1.153-2.881-5.75-0.587-5.75c2.302,0,5.178-1.729,4.605-6.32
			c-0.581-4.598-7.479-4.021-8.045-8.617c-0.583-4.598,3.44-5.748,0.566-11.498c-2.868-5.749,1.145-9.199,0-12.074
			c-1.149-2.874-2.295-6.321,1.156-12.07c3.448-5.747,9.775-8.626,12.07-8.04c2.295,0.563,6.322,2.875,8.05-0.586
			c1.716-3.444,1.716-6.318,0-6.901c-1.729-0.56-6.321-1.717-2.88-6.321c3.446-4.592,7.47-10.347,8.056-15.505
			c0.566-5.176-1.156-9.206,0.566-10.936c1.722-1.729,5.755,0,9.194-2.291c3.449-2.301,0.575-5.176,2.298-6.899
			c1.729-1.729,4.025-7.473,6.318-9.19c2.305-1.727,4.599-4.031,2.875-6.325c-1.715-2.309,3.453-4.608,3.453-8.629
			c0-4.021,5.743-6.9,9.196-6.9c3.445,0,9.201,0,9.201-3.439c0-3.448-2.307-10.926,2.868-8.617
			c5.171,2.289,9.195-0.585,12.649,2.289c3.446,2.88,8.042,2.306,8.042-2.289c0-4.61,1.73-12.076,6.901-9.203
			c0.403,0.225,0.779,0.477,1.174,0.725c1.705-3.846,4.966-6.276,8.019-5.903c4.604,0.586,7.467,8.627,13.221,9.771
			c5.749,1.15,11.497,3.457,13.22,0.57c1.729-2.875,5.755,1.73,9.197,0.58c3.446-1.15,3.446,6.329,6.899,1.73
			c3.445-4.598-0.573-7.473,5.176-6.895c5.746,0.567,2.301-6.326,2.301-10.35c0-4.022,7.467-4.598,7.467-8.046
			c0-3.451,10.352-0.582,12.069-2.88c1.73-2.297,7.474-4.013,9.781,0c2.294,4.024,12.062,5.172,12.641,8.627
			c0.275,1.667,0.011,4.295,0,6.737c1.588-1.57,3.615-2.749,5.563-2.749c3.572,0,6.787-5.362,10.014-4.648
			c2.677,0.592,5.328,0.145,6.153-4.334C313.156,31.997,307.683,31.76,307.025,34.2z"/>
		<path fill="none" stroke="#FFFFFF" stroke-miterlimit="10" d="M71.529,447.994c0,0,0.148-3.504-3.616-4.191
			c-3.767-0.686-3.53-1.988-3.887-3.197c-0.179-0.613-1.279-2.213-1.279-2.213s-2.063,0.205-1.548,3.678
			c0.166,1.129,0.256,1.881,0.3,2.387c0.07,0.83,0.443,1.592,1.05,2.154c0.936,0.863,2.358,1.869,3.751,1.654
			C68.661,447.898,69.586,447.633,71.529,447.994z"/>
		<path fill="none" stroke="#FFFFFF" stroke-miterlimit="10" d="M327.06,336.432c-2.151-0.54-3.492-5.362-6.985-6.708
			c-3.486-1.341-2.675-5.636-5.63-7.511c-2.946-1.887-1.077-5.636-1.347-8.596c-0.263-2.945,0.543-7.51-1.065-8.313
			c-1.618-0.811-8.326-4.563-11.268-3.217c-2.958,1.34-5.104,2.407-6.45,0c-1.336-2.418-3.21-3.761-6.164-2.957
			c-2.959,0.806-4.838-0.535-6.446-1.884c-0.241-0.208-0.442-0.521-0.61-0.88c-1.191,0.246-2.756,0.709-3.762,1.516
			c-1.795,1.433-2.148,4.289-4.658,4.289c-2.505,0-5.361-1.066-8.226,1.079c-2.867,2.145-3.581,4.659-3.224,6.432
			c0.356,1.792,0.721,4.659-1.43,4.659s-1.785,2.51-3.936,3.224c-2.144,0.713-5.727,3.935-6.086,5.714
			c-0.354,1.797-0.354,5.732-1.792,5.732c-1.43,0-6.433,0.713-7.872,2.503c-1.423,1.791-3.202,3.577-6.071,2.864
			c-1.471-0.37-5.407-0.545-8.873-0.629c0.053,0.353,0.053,0.702-0.083,1.071c-1.334,3.762-0.268,7.243,1.881,9.123
			c2.15,1.875,2.954,9.391,0.542,10.47c-2.423,1.066-6.981,4.29-6.981,6.169c0,1.875,4.828,3.487,4.027,6.171
			c-0.455,1.538-0.472,4.267-0.214,6.635c2.284,0.101,4.536,0.505,6.472-1.442c2.15-2.151,3.229-4.653,7.877-4.653
			s18.603,0,20.749,2.502c2.145,2.51,7.876,0.36,11.087,1.791c3.227,1.431,7.875,2.868,8.23,1.071
			c0.364-1.783,4.659,2.504,7.875,0.719c3.225-1.79,6.078,3.577,7.876,2.504c1.784-1.078,9.295-1.073,11.082,0.718
			c1.803,1.787,2.145-1.795,2.145-3.941c0-2.144,7.168-7.863,7.168-7.863s4.873-0.265,7.775-1.574
			c-0.646-0.926-1.194-2.453-1.795-5.051c-1.332-5.91-3.48-9.392-1.871-11.271c1.605-1.882,6.169,2.413,8.578,1.341
			c2.42-1.074,6.713-3.224,6.174-5.637C333.23,340.188,329.205,336.965,327.06,336.432z"/>
	</g>
</g>
<g id="Layer_3">
	<g>
		<g>
			<path fill="#BF1E2E" d="M215.599,334.712c-0.027,1.856-0.651,2.951-1.612,4.463c-0.494,0.776-0.252,1.522,0.063,2.292
				c0.407,0.996,1.578,1.755,2.308,2.485c1.429,1.43,0.602,4.646,0.403,6.36c-0.328,2.829,0.604,4.282,1.945,6.639
				c0.828,1.456-0.337,2.309-0.583,3.686c-0.403,2.259-1.469,2.876-3.028,4.227c-1.207,1.045-0.749,2.388-0.499,3.81
				c0.316,1.803-0.294,1.737-1.29,2.807c-0.718,0.771-0.906,1.786-1.229,2.783c-0.433,1.338,1.014,2.138,2.134,2.205
				c1.283,0.077,2.522-0.1,3.788-0.286c1.963-0.289,3.939-0.161,5.903-0.468c0.636-0.099,0.365-1.063-0.266-0.964
				c-2.756,0.431-5.946,0.662-8.741,0.76c-1.57-0.436-2.053-1.123-1.45-2.061c0.36-0.866,0.474-1.018,1.527-1.635
				c0.404-0.237,0.752-0.701,0.784-1.181c0.138-2.105-1.302-4.016,0.771-5.513c0.587-0.424,1.201-1.063,1.61-1.66
				c0.84-1.224,0.654-2.302,1.274-3.609c0.668-1.41,0.907-1.845,0.158-3.403c-0.521-1.084-1.284-1.997-1.73-3.127
				c-0.636-1.611,0.055-3.972,0.21-5.632c0.199-2.116-0.045-3.502-1.545-5.004c-1.105-0.795-1.536-1.986-1.291-3.573
				c0.38-0.598,0.737-1.129,1.023-1.778c0.358-0.813,0.352-1.753,0.364-2.622C216.608,334.067,215.608,334.068,215.599,334.712
				L215.599,334.712z"/>
		</g>
	</g>
	<g>
		<g>
			<path fill="#BF1E2E" d="M218.283,354.672c2.145-2.185,3.91-4.811,6.609-6.369c0.558-0.322,0.055-1.187-0.505-0.863
				c-2.781,1.605-4.602,4.275-6.811,6.525C217.124,354.426,217.831,355.133,218.283,354.672L218.283,354.672z"/>
		</g>
	</g>
	<g>
		<g>
			<path fill="#BF1E2E" d="M215.096,342.34c1.287,0.51,2.59-0.536,3.476-1.367c0.512-0.48,0.866-1.013,1.125-1.661
				c0.278-0.696,0.428-1.168,1.141-1.539c0.446-0.231,0.829-0.442,1.193-0.791c0.467-0.446-0.241-1.152-0.707-0.707
				c-0.478,0.456-1.15,0.575-1.619,1.02c-0.423,0.402-0.654,0.847-0.852,1.391c-0.409,1.129-2.046,3.263-3.492,2.69
				C214.762,341.139,214.504,342.106,215.096,342.34L215.096,342.34z"/>
		</g>
	</g>
	<g>
		<g>
			<path fill="#BF1E2E" d="M212.551,375.766c0.151,2.525-1.297,3.589-2.46,5.499c-0.523,0.858-0.039,1.991,0.35,2.779
				c0.311,0.629,0.721,1.212,1.048,1.835c0.879,1.67-0.428,2.908-1.344,4.153c-1.068,1.453-2.094,3.604-2.764,5.29
				c-0.825,2.075,3.173,3.336,0.079,5.643c-0.917,0.683-1.573,1.176-1.659,2.361c-0.115,1.577,1.018-0.164,0.544,3.023
				c-0.208,1.398-1.126,2.713-1.792,3.938c-0.871,1.604-1.426,3.203-1.242,5.042c0.063,0.636,1.064,0.642,1,0
				c-0.379-3.793,4.444-7.477,2.915-11.174c-0.954-2.307,1.447-2.112,2.019-3.682c0.681-1.868-1.4-4.216-0.433-5.774
				c1.194-1.923,2.046-3.916,3.395-5.749c0.653-0.888,0.775-2.09,0.348-3.098c-0.278-0.655-0.626-1.251-0.993-1.86
				c-0.98-1.628-0.226-2.818,0.942-4.08c1.093-1.181,1.137-2.624,1.046-4.145C213.513,375.125,212.512,375.122,212.551,375.766
				L212.551,375.766z"/>
		</g>
	</g>
	<g>
		<g>
			<path fill="#BF1E2E" d="M204.814,411.54c1.23,0.33,2.341,0.209,3.561-0.111c0.858-0.226,1.623-0.591,2.534-0.386
				c0.7,0.157,1.338,0.881,1.875,1.325c0.493,0.407,1.205-0.296,0.707-0.707c-0.793-0.654-1.712-1.625-2.816-1.683
				c-1.959-0.104-3.579,1.139-5.595,0.597C204.456,410.408,204.192,411.372,204.814,411.54L204.814,411.54z"/>
		</g>
	</g>
	<g>
		<g>
			<path fill="#BF1E2E" d="M210.825,389.928c0.521,1.771,3.447,2.108,4.996,2.287c1.023,0.118,2.35-0.292,3.31-0.418
				c1.157-0.152,2.422,0.024,3.587,0.042c2.182,0.035,4.342-0.1,6.499-0.429c0.636-0.097,0.365-1.06-0.266-0.964
				c-3.288,0.501-6.518,0.27-9.82,0.351c-1.476,0.036-2.82,0.635-4.324,0.25c-0.836-0.213-2.731-0.412-3.018-1.384
				C211.607,389.045,210.642,389.308,210.825,389.928L210.825,389.928z"/>
		</g>
	</g>
	<g>
		<g>
			<path fill="#BF1E2E" d="M214.352,392.153c0.468,0.438,0.916,0.667,1.505,0.913c2.057,0.857,1.653,2.48,1.96,4.044
				c0.405,2.062,2.45,3.413,2.574,5.582c0.037,0.641,1.037,0.645,1,0c-0.15-2.624-2.513-4.319-2.766-6.943
				c-0.103-1.066-0.144-1.759-0.788-2.633c-0.647-0.879-2.004-0.945-2.779-1.67C214.589,391.006,213.88,391.712,214.352,392.153
				L214.352,392.153z"/>
		</g>
	</g>
	<g>
		<g>
			<path fill="#BF1E2E" d="M211.66,389.529c-1.509-1.468-3.517-2.106-5.124-3.436c-1.001-0.828-1.363-2.443-2.031-3.522
				c-0.737-1.19-1.798-2.162-2.562-3.343c-1.348-2.085-2.137-4.601-4.148-6.168c-1.564-1.218-3.832-1.396-5.699-1.785
				c-0.629-0.131-0.897,0.833-0.266,0.964c2.523,0.526,5.102,0.766,6.708,3.057c1.327,1.894,2.094,4.135,3.591,5.921
				c1.459,1.742,2.189,3.959,3.701,5.583c1.404,1.509,3.632,1.983,5.124,3.436C211.415,390.686,212.123,389.979,211.66,389.529
				L211.66,389.529z"/>
		</g>
	</g>
	<g>
		<g>
			<path fill="#BF1E2E" d="M194.292,371.41c0.157-1.945,2.551-3,3.898-4.075c2.085-1.666,3.721-3.81,5.871-5.425
				c4.292-3.225,8.611-5.437,13.828-6.751c0.625-0.157,0.36-1.122-0.266-0.964c-5.532,1.393-10.444,3.777-14.86,7.45
				c-2.289,1.903-4.183,4.241-6.608,5.976c-1.384,0.99-2.718,1.991-2.862,3.789C193.24,372.053,194.241,372.048,194.292,371.41
				L194.292,371.41z"/>
		</g>
	</g>
	<g>
		<g>
			<path fill="#BF1E2E" d="M183.239,345.699c2.567-1.092,5.479-1.494,8.172-2.209c1.252-0.332,2.571-0.146,3.842-0.442
				c1.444-0.336,2.15,0.076,3.476,0.214c1.091,0.114,1.982-0.29,3.063-0.368c1.237-0.09,2.763,0.603,4.041,0.74
				c2.936,0.314,5.622-1.367,8.524-1.527c0.641-0.035,0.645-1.036,0-1c-2.941,0.162-5.558,1.597-8.524,1.527
				c-1.379-0.033-2.678-0.591-4.041-0.74c-1.393-0.152-2.48,0.56-3.946,0.079c-0.665-0.217-1.447-0.233-2.121-0.069
				c-1.531,0.373-3.048,0.334-4.58,0.622c-2.761,0.518-5.823,1.209-8.411,2.31C182.143,345.087,182.653,345.948,183.239,345.699
				L183.239,345.699z"/>
		</g>
	</g>
	<g>
		<g>
			<path fill="#BF1E2E" d="M183.29,331.798c-1.229,0.236-2.08,0.083-2.893,1.168c-0.931,1.243-1.813,2.581-3.24,3.326
				c-0.572,0.299-0.066,1.162,0.505,0.863c1.066-0.557,1.875-1.476,2.669-2.359c0.367-0.409,0.632-0.865,0.929-1.325
				c0.484-0.751,1.523-0.561,2.294-0.709C184.188,332.64,183.919,331.676,183.29,331.798L183.29,331.798z"/>
		</g>
	</g>
	<g>
		<g>
			<path fill="#BF1E2E" d="M176.804,337.238c0.292,0.616,0.656,0.944,1.295,1.201c1.7,0.684,2,2.196,2.057,3.862
				c0.073,2.112,0.828,2.556,2.491,3.481c0.564,0.314,1.068-0.55,0.505-0.863c-0.279-0.155-0.548-0.294-0.845-0.413
				c-0.957-0.381-1.095-1.285-1.151-2.206c-0.057-0.926-0.099-1.702-0.408-2.579c-0.232-0.659-0.642-1.151-1.154-1.608
				c-0.649-0.58-1.508-0.496-1.927-1.38C177.391,336.15,176.529,336.658,176.804,337.238L176.804,337.238z"/>
		</g>
	</g>
	<g>
		<g>
			<path fill="#BF1E2E" d="M182.922,345.699c-0.043,0.378-0.043,0.756,0,1.134c0.014,0.237,0.146,0.403,0.367,0.482
				c3.065,1.089,4.035,5.736,3.56,8.585c-0.373,2.233-1.163,4.345-0.975,6.64c0.149,1.816,1.443,3.109,2.548,4.424
				c1.513,1.8,2.788,3.201,4.855,4.351c0.564,0.314,1.068-0.55,0.505-0.863c-2.404-1.337-3.762-3.244-5.562-5.238
				c-2.56-2.837-0.827-6.535-0.285-9.782c0.33-1.973-0.32-4.207-1.131-5.997c-0.359-0.792-0.767-1.439-1.365-2.065
				c-0.682-0.714-1.583-0.557-1.518-1.67C183.959,345.055,182.959,345.058,182.922,345.699L182.922,345.699z"/>
		</g>
	</g>
	<g>
		<g>
			<path fill="#BF1E2E" d="M212.354,374.393c-1.644,0.171-2.932-0.83-4.374-1.458c-1.011-0.44-2.131-0.554-3.215-0.667
				c-3.297-0.344-6.717-0.528-10.013-0.14c-0.632,0.074-0.64,1.075,0,1c3.338-0.393,6.674-0.088,10.013,0.14
				c2.748,0.188,4.875,2.408,7.589,2.125C212.988,375.327,212.995,374.326,212.354,374.393L212.354,374.393z"/>
		</g>
	</g>
	<g>
		<g>
			<path fill="#BF1E2E" d="M204.941,409.936c-0.26-0.494-0.489-0.876-0.841-1.313c-1.004-1.246-1.092-2.239-1.177-3.758
				c-0.065-1.166-0.681-1.967-1.51-2.727c-1.849-1.692-1.28-3.474-2.119-5.459c-0.656-1.553-2.092-2.624-2.637-4.212
				c-0.383-1.117,0.45-2.6,0.149-3.838c-0.417-1.712-1.579-3.417-2.189-5.075c-0.725-1.971-1.241-3.969-1.468-6.058
				c-0.24-2.209,0.601-4.51,0.881-6.697c0.082-0.638-0.919-0.63-1,0c-0.251,1.96-0.754,3.862-0.891,5.837
				c-0.132,1.891,0.468,3.899,1.006,5.682c0.475,1.574,1.096,3.092,1.783,4.583c0.559,1.214,1.161,2.326,0.867,3.725
				c-0.1,0.476-0.243,1.068-0.176,1.56c0.146,1.064,0.631,1.807,1.283,2.638c0.975,1.243,1.519,1.929,1.727,3.616
				c0.119,0.959,0.29,1.809,0.606,2.73c0.17,0.496,0.631,0.909,0.989,1.268c1.138,1.142,1.704,2.21,1.771,3.951
				c0.065,1.671,1.349,2.657,2.082,4.051C204.378,411.011,205.241,410.505,204.941,409.936L204.941,409.936z"/>
		</g>
	</g>
	<g>
		<g>
			<path fill="#BF1E2E" d="M192.613,371.54c-0.231,0.909-1.242,1.57-1.902,2.156c-0.975,0.866-1.832,1.947-2.675,2.938
				c-0.621,0.729-1.089,1.615-1.685,2.367c-0.726,0.918-1.74,1.423-2.603,2.165c-0.642,0.551-1.003,1.136-1.434,1.875
				c-0.744,1.279-2.076,1.969-3.146,2.911c-1.649,1.452-2.66,3.872-3.515,5.834c-0.872,2.002-2.012,3.884-2.647,5.981
				c-0.662,2.184,0.487,4.749,0.649,6.91c0.167,2.221-1.021,3.835-1.78,5.778c-0.401,1.026-0.815,2.143-0.126,3.121
				c0.368,0.523,1.236,0.024,0.863-0.504c-0.94-1.336,0.906-3.448,1.357-4.671c0.672-1.819,0.77-3.432,0.512-5.353
				c-0.157-1.169-0.49-2.294-0.632-3.47c-0.188-1.552,0.625-3.054,1.288-4.381c1.117-2.238,2.021-4.575,3.338-6.707
				c1.126-1.823,3.173-2.58,4.277-4.288c1.184-1.833,2.813-2.961,4.305-4.496c1.472-1.513,2.594-3.409,4.038-4.982
				c0.872-0.951,2.145-1.599,2.48-2.92C193.736,371.18,192.772,370.915,192.613,371.54L192.613,371.54z"/>
		</g>
	</g>
	<g>
		<g>
			<path fill="#BF1E2E" d="M173.411,403.221c-1.511,0.726-3.534,0.679-4.719,1.996c-1.221,1.357-1.385,3.652-1.697,5.361
				c-0.115,0.63,0.849,0.899,0.964,0.266c0.3-1.643,0.443-3.813,1.609-5.107c0.943-1.048,3.104-1.055,4.348-1.652
				C174.497,403.805,173.989,402.942,173.411,403.221L173.411,403.221z"/>
		</g>
	</g>
	<g>
		<g>
			<path fill="#BF1E2E" d="M168.691,407.055c1.873,1.54,4.291,2.177,6.582,2.832c3.153,0.901,6.381,1.801,9.642,2.202
				c2.738,0.337,6.423,0.447,9.009-0.634c1.66-0.694,2.296-1.405,4.285-1.19c2.156,0.234,4.229,0.362,6.387,0.075
				c0.629-0.084,0.638-1.085,0-1c-2.945,0.392-5.957-0.572-8.821-0.07c-1.491,0.262-2.455,1.552-4.098,1.734
				c-1.456,0.162-2.959,0.215-4.423,0.219c-3.161,0.01-6.255-0.86-9.296-1.633c-2.801-0.712-6.285-1.371-8.561-3.242
				C168.905,405.941,168.193,406.645,168.691,407.055L168.691,407.055z"/>
		</g>
	</g>
	<g>
		<g>
			<path fill="#BF1E2E" d="M181.743,414.108c0.03-1.923,0.217-3.145,1.262-4.845c0.426-0.693,1-1.642,0.968-2.509
				c-0.063-1.723,0.238-2.712,1.602-3.825c1.093-0.892,1.759-2.273,2.515-3.434c0.687-1.055,1.023-2.085,1.555-3.222
				c0.541-1.154,1.86-1.145,2.413-2.136c0.593-1.063,0.809-2.208,1.11-3.382c0.454-1.768,1.777-2.177,2.539-3.583
				c0.307-0.567-0.556-1.072-0.863-0.505c-0.392,0.723-1.21,1.035-1.667,1.705c-0.801,1.177-1.089,2.543-1.422,3.911
				c-0.35,1.439-2.137,2.303-2.973,3.484c-0.838,1.184-1.231,2.724-2.043,3.971c-0.859,1.32-1.754,2.355-2.944,3.384
				c-0.694,0.6-0.861,1.324-0.908,2.203c-0.066,1.239-0.109,2.318-0.745,3.432c-0.311,0.546-0.701,1.061-0.943,1.644
				c-0.528,1.269-0.434,2.351-0.455,3.706C180.733,414.754,181.733,414.753,181.743,414.108L181.743,414.108z"/>
		</g>
	</g>
	<g>
		<g>
			<path fill="#BF1E2E" d="M178.799,386.057c-0.738-1.572-3.224-5.068-1.275-6.565c0.627-0.482,1.453-0.732,2.107-1.213
				c1.118-0.821,1.94-1.695,3.354-2.123c1.877-0.568,3.894-0.614,5.692-1.462c1.921-0.906,3.421-2.167,4.858-3.716
				c0.438-0.472-0.268-1.181-0.707-0.707c-2.192,2.362-4.494,3.735-7.658,4.394c-1.361,0.283-2.676,0.543-3.973,1.056
				c-1.018,0.402-1.704,1.424-2.561,2.053c-1.482,1.088-2.772,1.145-2.832,3.239c-0.054,1.894,1.358,3.909,2.129,5.549
				C178.209,387.145,179.071,386.637,178.799,386.057L178.799,386.057z"/>
		</g>
	</g>
	<g>
		<g>
			<path fill="#BF1E2E" d="M193.71,372.202c-0.097,0.201-0.169,0.243-0.395,0.207c-0.63-0.102-0.901,0.861-0.266,0.964
				c0.645,0.104,1.222-0.037,1.523-0.666C194.851,372.128,193.989,371.621,193.71,372.202L193.71,372.202z"/>
		</g>
	</g>
	<g>
		<g>
			<path fill="#BF1E2E" d="M189.779,367.758c-0.542-1.008-1.332-3.025-2.645-3.339c-1.058-0.253-2.244-0.137-3.248-0.577
				c-1.058-0.463-2.011-1.859-2.802-2.685c-1.202-1.254-3.284-1.385-4.886-1.63c-1.884-0.288-6.261,0.141-7.135-2.028
				c-0.62-1.539,0.372-4.046,0.227-5.723c-0.227-2.609-0.729-4.995-0.551-7.642c0.161-2.403,0.267-4.717-0.084-7.107
				c-0.406-2.76-1.425-5.425-2.177-8.101c-0.174-0.62-1.139-0.356-0.964,0.266c0.681,2.426,1.482,4.814,2.023,7.278
				c0.624,2.842,0.334,5.681,0.142,8.547c-0.175,2.607,0.458,4.995,0.681,7.567c0.153,1.758-0.656,3.425-0.261,5.181
				c0.707,3.138,7.525,2.637,9.604,3.028c2.51,0.472,3.219,2.168,5.119,3.515c0.638,0.452,1.308,0.839,2.116,0.874
				c2.184,0.095,3.091,1.43,3.979,3.081C189.221,368.831,190.084,368.326,189.779,367.758L189.779,367.758z"/>
		</g>
	</g>
	<g>
		<g>
			<path fill="#BF1E2E" d="M167.389,333.306c1.745,0.198,3.102,1.722,4.628,2.458c1.781,0.859,3.913,1.075,5.784,1.706
				c0.613,0.207,0.874-0.759,0.266-0.964c-2.12-0.715-4.527-0.957-6.471-2.103c-1.398-0.824-2.541-1.908-4.207-2.098
				C166.749,332.233,166.755,333.234,167.389,333.306L167.389,333.306z"/>
		</g>
	</g>
	<g>
		<g>
			<path fill="#BF1E2E" d="M168.173,350.037c2.093-0.044,4.79-0.905,6.344-2.314c1.095-0.994,2.527,0.26,3.723-0.051
				c1.519-0.394,2.641-1.519,4.182-1.836c0.631-0.13,0.364-1.094-0.266-0.964c-0.971,0.2-1.649,0.542-2.469,1.083
				c-1.624,1.072-3.196,0.284-4.892,0.38c-0.387,0.022-0.731,0.44-0.986,0.681c-1.104,1.043-4.212,1.992-5.637,2.021
				C167.529,349.051,167.528,350.051,168.173,350.037L168.173,350.037z"/>
		</g>
	</g>
	<g>
		<g>
			<path fill="#BF1E2E" d="M168.568,407.18c-0.416-1.526-2.092-1.893-3.112-2.967c-1.5-1.578-3.373-0.973-5.206-1.791
				c-1.884-0.842-3.107-3.039-4.884-4.152c-1.178-0.739-2.383-1.262-3.444-2.192c-0.849-0.745-1.236-1.863-2.067-2.633
				c-0.359-0.333-1.222-0.531-1.681-0.5c-1.715,0.114-3.087,0.185-4.53-0.873c-0.746-0.546-1.389-0.864-2.292-1.048
				c-1.047-0.213-0.362-1.743-0.222-2.498c0.25-1.34,0.056-2.207-1.116-2.865c-0.649-0.365-0.351-1.552-0.688-2.128
				c-0.259-0.442-2.035-1.105-2.144-1.191c-0.764-0.605-1.527-1.289-2.247-1.948c-1.295-1.187-0.523-3.181-0.334-4.624
				c0.087-0.667-0.491-4.605,0.542-4.633c0.914-0.024,1.759-0.079,2.654-0.271c2.394-0.514,4.551-1.117,7.043-1.139
				c1.818-0.016,3.719,2.173,5.511,1.503c3.881-1.45,6.495-5.424,7.393-9.273c0.718-3.078,1.675-4.997,3.908-7.252
				c1.878-1.896,3.337-3.9,6.132-4.422c0.633-0.118,0.364-1.082-0.266-0.964c-1.943,0.363-3.356,1.346-4.742,2.717
				c-1.642,1.625-3.58,3.304-4.692,5.34c-1.084,1.982-1.268,4.439-1.895,6.582c-0.467,1.594-1.728,2.853-2.903,3.951
				c-1.729,1.616-3.668,2.597-5.915,1.303c-3.549-2.043-8.609,0.952-12.229,0.924c-0.875-0.007-1.627,0.326-1.627,1.328
				c0,1.448,0.201,2.854,0.085,4.305c-0.083,1.05-0.646,2.457-0.329,3.531c0.517,1.753,1.926,2.542,3.203,3.748
				c0.482,0.456,2.028,0.96,2.104,1.674c0.049,0.466,0.071,1.198,0.499,1.499c2.412,1.696-0.202,3.25,0.676,5.074
				c0.129,0.269,0.296,0.512,0.619,0.576c1.295,0.258,2.239,0.678,3.317,1.467c0.601,0.44,1.444,0.859,2.219,0.808
				c2.068-0.138,3.523,0.28,4.754,2.005c1.414,1.981,4.058,2.614,5.829,4.196c1.49,1.331,2.453,2.791,4.448,3.387
				c1.369,0.408,2.62,0.107,3.809,1.188c0.661,0.602,2.651,1.777,2.855,2.525C167.773,408.066,168.738,407.803,168.568,407.18
				L168.568,407.18z"/>
		</g>
	</g>
	<g>
		<g>
			<path fill="#BF1E2E" d="M178.676,378.074c-0.632-1.655-0.432-3.441-0.787-5.159c-0.297-1.441-1.449-2.857-2.279-4.018
				c-0.912-1.273-2.065-2.307-3.186-3.391c-1.999-1.935-2.5-4.229-2.793-6.906c-0.069-0.634-1.07-0.641-1,0
				c0.37,3.374,1.173,5.762,3.636,8.146c1.641,1.588,3.001,3.234,4.124,5.231c1.112,1.977,0.528,4.288,1.32,6.362
				C177.94,378.936,178.907,378.678,178.676,378.074L178.676,378.074z"/>
		</g>
	</g>
	<g>
		<g>
			<path fill="#BF1E2E" d="M168.871,358.101c-3.22-0.233-5.993-1.803-9.192-2.248c-0.63-0.088-0.902,0.875-0.266,0.964
				c3.292,0.458,6.122,2.043,9.458,2.284C169.514,359.147,169.51,358.147,168.871,358.101L168.871,358.101z"/>
		</g>
	</g>
	<g>
		<g>
			<path fill="#BF1E2E" d="M159.712,355.293c-0.94-0.65-1.942-0.742-3.063-0.768c-2.089-0.048-4.191,0.057-6.286,0.017
				c-1.159-0.022-2.31,0.058-3.467,0.091c-0.566,0.017,0.398-1.979,0.487-2.214c0.56-1.474,1.049-3.341,0.966-4.922
				c-0.089-1.689-2.022-2.985-2.557-4.506c-0.603-1.712-0.305-2.909-1.749-4.181c-2.044-1.802-3.03-4.516-6.021-4.76
				c-0.643-0.053-0.638,0.948,0,1c2.099,0.171,2.839,1.801,3.97,3.264c0.372,0.481,0.87,0.832,1.344,1.203
				c1.156,0.906,1.23,2.418,1.491,3.74c0.404,2.045,2.837,3.086,2.474,5.468c-0.272,1.788-0.929,3.55-1.671,5.182
				c-0.694,1.528,0.71,1.744,1.89,1.709c2.241-0.065,4.468-0.021,6.71,0c1.656,0.016,3.511-0.472,4.976,0.541
				C159.739,356.524,160.238,355.657,159.712,355.293L159.712,355.293z"/>
		</g>
	</g>
	<g>
		<g>
			<path fill="#BF1E2E" d="M140.595,335.724c1.996-0.813,3.818-1.96,5.784-2.838c2.357-1.053,4.622-1.418,7.179-1.666
				c3.934-0.38,7.524-2.535,11.479-2.972c0.634-0.07,0.641-1.071,0-1c-4.231,0.468-8.063,2.643-12.287,3.05
				c-1.837,0.177-3.556,0.446-5.307,1.063c-2.491,0.877-4.676,2.406-7.113,3.399C139.74,335,139.998,335.967,140.595,335.724
				L140.595,335.724z"/>
		</g>
	</g>
	<g>
		<g>
			<path fill="#BF1E2E" d="M164.765,327.491c-0.746-0.434-1.494-1.132-1.775-1.968c-0.204-0.608-1.17-0.347-0.964,0.266
				c0.366,1.088,1.254,1.996,2.234,2.565C164.819,328.679,165.322,327.815,164.765,327.491L164.765,327.491z"/>
		</g>
	</g>
	<g>
		<g>
			<path fill="#BF1E2E" d="M177.583,376.918c-2.672-0.018-4.801-1.019-7.113-2.241c-1.859-0.982-4.065-1.203-6.086-1.662
				c-4.65-1.057-8.735-3.503-13.64-3.242c-0.642,0.034-0.645,1.035,0,1c5.021-0.268,9.415,2.306,14.195,3.393
				c2.583,0.587,4.748,1.292,7.133,2.476c1.734,0.86,3.585,1.263,5.511,1.276C178.229,377.923,178.228,376.923,177.583,376.918
				L177.583,376.918z"/>
		</g>
	</g>
	<g>
		<g>
			<path fill="#BF1E2E" d="M148.126,393.971c-1.505,1.378-0.8,3.734-0.67,5.496c0.047,0.639,1.048,0.644,1,0
				c-0.105-1.42-0.834-3.68,0.377-4.789C149.31,394.242,148.601,393.537,148.126,393.971L148.126,393.971z"/>
		</g>
	</g>
	<g>
		<g>
			<path fill="#BF1E2E" d="M149.065,393.368c-0.083-2.65,3.919-2.665,5.804-3.125c3.29-0.805,6.328-1.123,9.69-1.304
				c1.937-0.104,3.339-0.975,4.208-2.695c1.066-2.113,3.139-1.572,4.983-1.613c1.109-0.025,2.15-0.501,3.042-1.114
				c0.527-0.363,0.028-1.23-0.505-0.863c-1.979,1.361-3.905,0.79-6.109,0.716c-0.624-0.021-1.455,0.411-1.73,0.994
				c-0.903,1.913-1.521,3.304-3.888,3.577c-1.625,0.187-3.276,0.02-4.91,0.201c-2.881,0.319-5.884,1.206-8.699,1.929
				c-1.701,0.437-2.942,1.462-2.884,3.299C148.085,394.011,149.085,394.013,149.065,393.368L149.065,393.368z"/>
		</g>
	</g>
	<g>
		<g>
			<path fill="#BF1E2E" d="M150.461,390.317c-0.005-1.574-0.067-3.074-0.497-4.593c-0.414-1.464-1.667-2.677-2.538-3.877
				c-1.493-2.058-3.086-4.992-1.68-7.402c0.858-1.47,1.488-2.865,1.734-4.56c0.092-0.63-0.872-0.902-0.964-0.266
				c-0.519,3.568-3.48,5.575-1.784,9.245c0.787,1.701,1.606,3.217,2.74,4.714c1.631,2.152,1.98,4.084,1.988,6.738
				C149.463,390.962,150.463,390.962,150.461,390.317L150.461,390.317z"/>
		</g>
	</g>
	<g>
		<g>
			<path fill="#BF1E2E" d="M139.895,390.62c-2.695,0.998-1.296,3.428-1.326,5.536c-0.009,0.645,0.991,0.644,1,0
				c0.021-1.449-1.271-3.882,0.592-4.572C140.76,391.362,140.5,390.395,139.895,390.62L139.895,390.62z"/>
		</g>
	</g>
	<g>
		<g>
			<path fill="#BF1E2E" d="M139.201,396.812c1.023-0.211,1.995-0.573,2.962-0.958c0.963-0.383,1.655-1.188,2.616-1.569
				c0.592-0.234,0.334-1.202-0.266-0.964c-0.825,0.327-1.46,0.876-2.196,1.355c-0.941,0.613-2.292,0.946-3.382,1.171
				C138.304,395.978,138.572,396.941,139.201,396.812L139.201,396.812z"/>
		</g>
	</g>
	<g>
		<g>
			<path fill="#BF1E2E" d="M139.985,390.533c-1.557-0.359-2.871-1.109-4.33-1.719c-1.485-0.62-1.286-1.829-2.436-2.501
				c-1.206-0.706-2.491-1.195-3.66-2.004c-1.245-0.861-2.914-0.773-4.301-1.271c-0.608-0.219-0.868,0.748-0.266,0.964
				c1.828,0.657,3.462,0.645,5.078,1.918c1.115,0.879,2.608,0.968,3.286,2.425c0.27,0.581,0.941,0.978,1.504,1.213
				c1.651,0.69,3.096,1.533,4.858,1.939C140.347,391.642,140.614,390.677,139.985,390.533L139.985,390.533z"/>
		</g>
	</g>
	<g>
		<g>
			<path fill="#BF1E2E" d="M128.78,391.53c1.153-1.536,3.743-1.383,5.313-2.347c0.548-0.336,0.046-1.202-0.505-0.863
				c-1.813,1.113-4.299,0.878-5.671,2.706C127.529,391.542,128.398,392.039,128.78,391.53L128.78,391.53z"/>
		</g>
	</g>
	<g>
		<g>
			<path fill="#BF1E2E" d="M121.457,371.407c2.115-1.125,4.501-0.878,6.759-0.387c1.916,0.417,3.863,0.291,5.799,0.541
				c0.638,0.083,0.63-0.918,0-1c-2.598-0.335-5.204-0.56-7.808-0.889c-1.818-0.229-3.638,0.011-5.256,0.872
				C120.382,370.846,120.888,371.709,121.457,371.407L121.457,371.407z"/>
		</g>
	</g>
	<g>
		<g>
			<path fill="#BF1E2E" d="M147.063,369.406c0.019-1.358,0.898-2.238,1.288-3.441c0.087-0.268,0.027-0.633-0.071-0.892
				c-0.39-1.036,0.398-2.291,0.677-3.292c0.282-1.012,0.293-2.021,0.147-3.051c-0.009-0.066-0.194-0.668-0.358-0.832
				c-0.887-0.886-1.502-1.915-1.701-3.178c-0.1-0.636-1.063-0.365-0.964,0.266c0.182,1.155,0.344,1.92,1.067,2.845
				c0.978,1.25,1.083,0.844,1.06,2.425c-0.017,1.179-0.604,2.054-0.966,3.111c-0.362,1.057,0.288,2.518-0.511,3.325
				c-0.691,0.699-0.656,1.809-0.668,2.714C146.054,370.051,147.054,370.051,147.063,369.406L147.063,369.406z"/>
		</g>
	</g>
	<g>
		<g>
			<path fill="#BF1E2E" d="M145.865,352.872c-2.652-0.277-5.168-1.032-7.85-1.054c-2.892-0.023-5.619,0.683-8.513,0.191
				c-4.191-0.712-8.195-2.465-12.123,0.059c-0.541,0.347-0.04,1.213,0.505,0.863c4.055-2.606,8.639-0.267,12.954,0.277
				c2.354,0.296,4.82-0.291,7.177-0.391c2.649-0.113,5.231,0.78,7.85,1.054C146.506,353.939,146.5,352.938,145.865,352.872
				L145.865,352.872z"/>
		</g>
	</g>
	<g>
		<g>
			<path fill="#BF1E2E" d="M119.637,341.411c2.254,0.006,3.588,0.935,4.635,2.891c1.347,2.517,0.22,4.492-0.761,6.847
				c-0.248,0.595,0.72,0.852,0.964,0.266c1.261-3.024,2.04-5.04,0.403-8.099c-1.102-2.059-2.982-2.899-5.241-2.905
				C118.992,340.409,118.992,341.409,119.637,341.411L119.637,341.411z"/>
		</g>
	</g>
	<g>
		<g>
			<path fill="#BF1E2E" d="M125.553,347.355c1.077-0.646,2.604-0.852,3.568-1.688c1.412-1.225,2.01-2.975,3.664-3.976
				c2.942-1.782,6.047-2.39,7.848-5.582c0.317-0.563-0.546-1.066-0.863-0.505c-1.769,3.135-5.214,3.845-8.103,5.595
				c-0.91,0.551-1.494,1.544-2.065,2.405c-1.136,1.711-2.919,1.907-4.554,2.887C124.496,346.823,124.998,347.688,125.553,347.355
				L125.553,347.355z"/>
		</g>
	</g>
	<g>
		<g>
			<path fill="#BF1E2E" d="M121.982,351.189c-0.705,0.883-0.143,1.741,0.449,2.556c1.302,1.793,2.665,3.24,3.803,5.188
				c0.742,1.27,1.596,2.571,1.988,3.997c0.176,0.639,0.563,0.754,1.106,0.972c0.204,0.038,0.408,0.027,0.614-0.034
				c0.853-0.092,1.672,1.577,2.071,2.218c0.968,1.552,1.069,2.938,1.066,4.714c-0.001,0.645,0.999,0.645,1,0
				c0.003-1.957-0.071-3.571-1.203-5.219c-0.806-1.174-1.346-2.632-2.935-2.713c-0.827-0.042-1.66-2.338-1.963-2.895
				c-0.715-1.315-1.498-2.594-2.247-3.89c-0.42-0.728-3.63-3.45-3.042-4.186C123.087,351.397,122.385,350.685,121.982,351.189
				L121.982,351.189z"/>
		</g>
	</g>
	<g>
		<g>
			<path fill="#BF1E2E" d="M120.179,340.637c-0.104-3.65-1.419-6.828-3.019-10.055c-2.338-4.715-3.947-9.643-5.888-14.52
				c-0.235-0.592-1.203-0.334-0.964,0.266c1.541,3.873,2.788,7.853,4.478,11.667c1.856,4.191,4.259,7.917,4.393,12.643
				C119.197,341.28,120.197,341.282,120.179,340.637L120.179,340.637z"/>
		</g>
	</g>
	<g>
		<g>
			<path fill="#BF1E2E" d="M162.904,325.342c-0.749-2.144-3.442-2.78-4.708-4.662c-1.878-2.793-3.457-5.423-5.955-7.738
				c-1.197-1.109-2.518-2.021-3.615-3.243c-1.233-1.374-2.114-3.033-3.248-4.484c-2.331-2.984-4.776-5.896-7.571-8.458
				c-0.474-0.435-1.184,0.271-0.707,0.707c2.402,2.202,4.498,4.652,6.535,7.189c2.001,2.493,3.568,5.345,6.013,7.45
				c2.753,2.372,4.899,4.686,6.888,7.75c0.767,1.182,1.353,2.26,2.394,3.229c0.93,0.866,2.546,1.201,3.009,2.525
				C162.151,326.213,163.117,325.953,162.904,325.342L162.904,325.342z"/>
		</g>
	</g>
	<g>
		<g>
			<path fill="#BF1E2E" d="M166.043,322.521c-2.537-2.575-2.128-6.26-2.468-9.581c-0.396-3.872-1.817-7.657-2.894-11.374
				c-1.123-3.877-1.633-7.875-2.22-11.856c-0.652-4.419-1.563-8.744-2.078-13.188c-0.456-3.927-0.819-7.651-0.691-11.612
				c0.136-4.222,0.396-8.458,0.268-12.681c-0.137-4.512,1.166-7.892,3.095-11.906c1.653-3.439,2.482-6.986,3.849-10.511
				c0.234-0.602-0.733-0.86-0.964-0.266c-0.711,1.832-1.09,3.755-1.699,5.62c-0.702,2.145-1.831,4.189-2.802,6.222
				c-1.739,3.64-2.584,6.791-2.479,10.841c0.11,4.226-0.131,8.458-0.268,12.681c-0.147,4.565,0.432,8.877,0.884,13.405
				c0.393,3.933,1.28,7.766,1.92,11.661c0.754,4.59,1.394,9.08,2.718,13.555c1.172,3.964,2.322,7.84,2.548,11.992
				c0.155,2.846,0.492,5.593,2.573,7.706C165.789,323.688,166.496,322.98,166.043,322.521L166.043,322.521z"/>
		</g>
	</g>
	<g>
		<g>
			<path fill="#BF1E2E" d="M110.398,309.435c-2.928,0.172-3.543-3.276-3.633-5.528c-0.119-2.99,1.476-4.458,4.113-5.509
				c2.096-0.835,4.303-1.378,6.411-2.195c2.979-1.155,5.679-2.83,8.442-4.404c2.619-1.492,5.601-0.67,8.343-1.596
				c1.939-0.654,3.27-2.87,4.188-4.555c1.251-2.297,1.811-4.901,2.526-7.393c0.926-3.224,1.86-6.417,2.265-9.756
				c0.395-3.258,0.241-6.519,1.033-9.73c0.687-2.782,1.679-4.943,1.444-7.882c-0.167-2.076-0.71-4.165-1.863-5.902
				c-0.777-1.171-4.273-4.759-2.468-5.921c3.083-1.986,7.428-1.916,10.792-3.346c4.341-1.846,5.084-8.099,9.649-9.478
				c-0.205-0.116-0.41-0.232-0.615-0.349c0.68,3.553,3.594,6.04,5.019,9.27c0.26,0.589,1.121,0.08,0.863-0.505
				c-1.385-3.14-4.258-5.583-4.918-9.03c-0.05-0.263-0.37-0.423-0.615-0.349c-4.666,1.408-5.707,7.513-9.888,9.578
				c-3.554,1.755-8.315,1.256-11.465,3.838c-0.945,0.774-0.266,2.139,0.171,2.982c1.297,2.502,3.191,4.179,3.924,6.987
				c1.032,3.951-0.264,6.885-1.188,10.63c-0.868,3.519-0.546,7.255-1.098,10.826c-0.542,3.508-1.79,6.877-2.679,10.302
				c-0.986,3.801-2.879,8.81-7.351,9.249c-2.724,0.268-4.832,0.275-7.277,1.668c-3.279,1.868-6.475,3.618-10.063,4.848
				c-3.352,1.148-8.189,1.938-8.619,6.238c-0.3,2.999,0.345,7.673,4.064,8.043c0.165-0.009,0.329-0.019,0.494-0.029
				C111.039,310.397,111.042,309.396,110.398,309.435L110.398,309.435z"/>
		</g>
	</g>
	<g>
		<g>
			<path fill="#BF1E2E" d="M157.325,228.281c-3.046-0.468-5.407-2.237-8.06-3.658c-2.169-1.161-4.712-1.533-7.12-1.848
				c-2.571-0.336-5.42-0.651-7.874,0.334c-1.822,0.732-3.968,1.721-5.139,3.358c-1.652,2.309-1.93,4.688-4.694,6.146
				c-2.406,1.27-5.074,1.689-7.42,3.15c-2.377,1.48-3.845,3.809-5.911,5.603c-0.776,0.674-1.145,1.446-1.321,2.443
				c-0.381,2.146-2.04,2.377-3.772,2.963c-1.788,0.605-2.475,2.057-3.074,3.712c-1.141,3.152-4.537,5.219-6.971,7.346
				c-1.313,1.148-2.813,2.876-2.388,4.721c0.327,1.417,1.217,2.688,1.566,4.13c0.326,1.345,0.358,2.813,0.924,4.093
				c0.451,1.02,1.065,1.783,1.806,2.602c1.185,1.31,1.877,2.818,2.718,4.343c0.567,1.029,1.425,1.903,2.203,2.771
				c1.329,1.48,1.002,3.666,0.956,5.511c-0.054,2.175-0.33,4.349-0.625,6.501c-0.141,1.026-0.458,2.192-0.298,3.238
				c0.164,1.075,0.642,1.979,1.124,2.944c0.636,1.273,2.284,2.966,2.284,4.453c0,0.645,1,0.645,1,0c0-1.668-1.6-3.603-2.42-4.958
				c-1.738-2.868-0.566-6.212-0.25-9.34c0.221-2.192,0.884-5.672-0.169-7.744c-1.076-2.116-2.899-3.759-4.012-5.92
				c-0.485-0.942-1.104-1.716-1.802-2.505c-1.277-1.445-1.809-2.754-2.173-4.648c-0.212-1.104-0.343-2.263-0.794-3.304
				c-0.352-0.812-0.745-1.61-1.071-2.432c-0.422-1.063,1.034-2.595,1.609-3.243c1.865-2.097,4.375-3.596,6.284-5.674
				c0.528-0.574,0.95-1.261,1.226-1.989c0.789-2.077,1.512-3.348,3.782-4.012c1.851-0.542,2.968-1.338,3.302-3.294
				c0.277-1.616,1.507-2.226,2.446-3.41c1.078-1.358,2.331-2.56,3.708-3.609c3.503-2.669,8.327-2.513,11.084-6.212
				c0.665-0.892,1.079-1.972,1.536-2.977c0.66-1.45,1.751-2.127,3.141-2.812c1.505-0.742,2.764-1.515,4.495-1.56
				c1.414-0.037,2.831,0.067,4.237,0.197c3.104,0.286,5.996,0.986,8.709,2.539c2.279,1.304,4.313,2.608,6.955,3.014
				C157.689,229.342,157.96,228.378,157.325,228.281L157.325,228.281z"/>
		</g>
	</g>
	<g>
		<g>
			<path fill="#BF1E2E" d="M112.356,302.249c-2.792,0.579-3.276-2.157-4.32-4.098c-0.729-1.356-1.969-1.896-3.386-2.308
				c-0.621-0.181-0.884,0.785-0.266,0.964c1.062,0.309,1.978,0.627,2.622,1.571c0.645,0.945,1.003,2.09,1.541,3.098
				c0.885,1.66,2.296,2.106,4.075,1.737C113.253,303.082,112.986,302.118,112.356,302.249L112.356,302.249z"/>
		</g>
	</g>
	<g>
		<g>
			<path fill="#BF1E2E" d="M106.7,290.812c1.576-1.444,3.57-2.059,5.354-3.172c1.67-1.043,2.378-2.741,2.827-4.577
				c1.609-6.576,2.651-13.387,3.841-20.052c0.469-2.622,0.408-5.256,1.207-7.828c0.96-3.089,3.818-5.542,6.562-7.047
				c2.564-1.406,5.571-1.929,8.288-2.973c2.226-0.856,4.216-2.101,6.037-3.629c0.495-0.415-0.217-1.119-0.707-0.707
				c-4.373,3.67-9.862,4.11-14.708,6.767c-4.363,2.392-6.643,6.479-7.239,11.285c-0.81,6.517-2.076,12.996-3.289,19.456
				c-0.59,3.146-0.839,6.89-3.787,8.73c-1.718,1.073-3.569,1.644-5.092,3.04C105.517,290.542,106.226,291.247,106.7,290.812
				L106.7,290.812z"/>
		</g>
	</g>
	<g>
		<g>
			<path fill="#BF1E2E" d="M118.363,258.133c-2.561-1.739-6.201-1.835-9.165-1.42c-4.966,0.697-8.842,4.034-14.092,3.069
				c-0.63-0.116-0.899,0.848-0.266,0.964c4.044,0.744,7.314-0.559,10.973-2.142c3.437-1.487,8.84-1.783,12.044,0.392
				C118.393,259.359,118.893,258.493,118.363,258.133L118.363,258.133z"/>
		</g>
	</g>
	<g>
		<g>
			<path fill="#BF1E2E" d="M161.105,224.933c-2.005-1.28-2.173-3.776-4.211-4.986c-2.262-1.343-5.93-1.506-8.518-1.67
				c-3.812-0.243-11.108-0.487-11.794,4.473c-0.087,0.63,0.876,0.902,0.964,0.266c0.13-0.936,0.095-1.565,0.958-2.141
				c0.992-0.662,2.184-0.955,3.322-1.259c2.894-0.774,6.036-0.482,8.967-0.08c2.466,0.338,5.877,0.568,7.15,2.995
				c0.729,1.391,1.305,2.403,2.658,3.267C161.146,226.144,161.646,225.278,161.105,224.933L161.105,224.933z"/>
		</g>
	</g>
	<g>
		<g>
			<path fill="#BF1E2E" d="M137.855,297.195c-0.153-0.512-0.469-0.921-0.806-1.327c-0.303-0.365-0.718-0.735-0.784-1.227
				c-0.085-0.637-1.049-0.365-0.964,0.266c0.141,1.049,1.298,1.579,1.59,2.554C137.076,298.077,138.041,297.814,137.855,297.195
				L137.855,297.195z"/>
		</g>
	</g>
</g>
</svg>
