<?xml version="1.0" encoding="utf-8"?>
<!-- Generator: Adobe Illustrator 16.0.0, SVG Export Plug-In . SVG Version: 6.00 Build 0)  -->
<!DOCTYPE svg PUBLIC "-//W3C//DTD SVG 1.1//EN" "http://www.w3.org/Graphics/SVG/1.1/DTD/svg11.dtd">
<svg version="1.1" id="Layer_1" xmlns="http://www.w3.org/2000/svg" xmlns:xlink="http://www.w3.org/1999/xlink" x="0px" y="0px"
	 width="22.5px" height="20.875px" viewBox="0 0 22.5 20.875" enable-background="new 0 0 22.5 20.875" xml:space="preserve">
<g id="Layer_2">
</g>
<g id="Capa_1">
	<path fill="#FFFFFF" d="M16.88,9.628c0,3.12-2.52,5.63-5.63,5.63c-3.11,0-5.63-2.511-5.63-5.63c0-3.12,2.52-5.63,5.63-5.63
		C14.36,3.998,16.88,6.508,16.88,9.628z"/>
	<path fill="#BF1E2E" d="M0,0v9.63c0,6.201,5.04,11.25,11.25,11.25S22.5,15.831,22.5,9.63V0H0z M11.25,15.25
		c-3.109,0-5.63-2.51-5.63-5.621C5.62,6.51,8.141,4,11.25,4c3.11,0,5.63,2.51,5.63,5.63C16.88,12.741,14.36,15.25,11.25,15.25z"/>
</g>
</svg>
