<svg height="512" viewBox="0 0 512 512" width="512" xmlns="http://www.w3.org/2000/svg"><g><circle cx="40" cy="352" r="8"/><circle cx="472" cy="352" r="8"/><circle cx="40" cy="448" r="8"/><circle cx="472" cy="448" r="8"/><circle cx="40" cy="208" r="8"/><circle cx="472" cy="208" r="8"/><circle cx="40" cy="304" r="8"/><circle cx="472" cy="304" r="8"/><path d="m496 96a8 8 0 0 0 8-8v-48a8 8 0 0 0 -8-8h-480a8 8 0 0 0 -8 8v48a8 8 0 0 0 8 8h24v32h-24a8 8 0 0 0 -8 8v96a8 8 0 0 0 8 8h24v32h-24a8 8 0 0 0 -8 8v96a8 8 0 0 0 8 8h24v32h-24a8 8 0 0 0 -8 8v48a8 8 0 0 0 8 8h480a8 8 0 0 0 8-8v-48a8 8 0 0 0 -8-8h-24v-32h24a8 8 0 0 0 8-8v-96a8 8 0 0 0 -8-8h-24v-32h24a8 8 0 0 0 8-8v-96a8 8 0 0 0 -8-8h-24v-32zm-8 336v32h-464v-32zm-432-16v-32h24v32zm40 0v-32h64v32zm80 0v-32h24v32zm40 0v-32h80v32zm96 0v-32h24v32zm40 0v-32h64v32zm80 0v-32h24v32zm56-48h-464v-32h464zm0-80v32h-464v-32zm-432-16v-32h24v32zm40 0v-32h64v32zm80 0v-32h24v32zm40 0v-32h80v32zm96 0v-32h24v32zm40 0v-32h64v32zm80 0v-32h24v32zm56-48h-464v-32h464zm0-80v32h-464v-32zm-432-16v-32h24v32zm40 0v-32h64v32zm80 0v-32h24v32zm40 0v-32h80v32zm96 0v-32h24v32zm40 0v-32h64v32zm80 0v-32h24v32zm-408-48v-32h464v32z"/><circle cx="40" cy="64" r="8"/><circle cx="472" cy="64" r="8"/><circle cx="40" cy="160" r="8"/><circle cx="472" cy="160" r="8"/></g></svg>